<svg xmlns="http://www.w3.org/2000/svg" viewBox="0 0 200 60"><defs><style>.cls-1{fill:#f3b61b;}.cls-2{fill:none;}.cls-3{fill:#231f20;}.cls-4{fill:#f4b61b;}</style></defs><title>InterBet_Logo_Light_bg</title><g id="Layer_2" data-name="Layer 2"><g id="Слой_1" data-name="Слой 1"><rect class="cls-1" x="118.2" y="6" width="81.8" height="48"/><rect class="cls-2" width="200" height="60"/><path class="cls-3" d="M137.59,17.7V42.44h-7.85a1.56,1.56,0,0,1-.93-.25.83.83,0,0,1-.32-.7,1,1,0,0,1,.67-1l.64-.24a.57.57,0,0,0,.19-.21,1.67,1.67,0,0,0,.2-.92V21a1.69,1.69,0,0,0-.2-.93.57.57,0,0,0-.19-.21l-.64-.24a1,1,0,0,1-.67-1,.84.84,0,0,1,.32-.7,1.56,1.56,0,0,1,.93-.24h7.85Zm5.18,11.92a16.61,16.61,0,0,1,2.31.64,6,6,0,0,1,1.46.78,5,5,0,0,1,1.7,2.05,6.68,6.68,0,0,1,.59,2.86,6,6,0,0,1-2.09,4.84,6.4,6.4,0,0,1-2.4,1.27,12.71,12.71,0,0,1-3.42.38h-2V40.53a3.34,3.34,0,0,0,1.05-.21,1.72,1.72,0,0,0,.68-.51,3.25,3.25,0,0,0,.55-2.09V33.61a5.67,5.67,0,0,0-.14-1.41,2.29,2.29,0,0,0-.53-.93,1.76,1.76,0,0,0-.61-.47,3.87,3.87,0,0,0-.95-.23V28.68a4.11,4.11,0,0,0,.95-.18,1.7,1.7,0,0,0,.63-.42,2.11,2.11,0,0,0,.45-.7,2.4,2.4,0,0,0,.2-.8V22.45a3.83,3.83,0,0,0-.15-1,2.64,2.64,0,0,0-.37-.84A2.13,2.13,0,0,0,140,20a3.33,3.33,0,0,0-1.06-.27v-2h1.91a8.67,8.67,0,0,1,5.8,1.7,5.13,5.13,0,0,1,1.4,1.89,6.13,6.13,0,0,1,0,4.78,5,5,0,0,1-1.37,1.87,5.45,5.45,0,0,1-1.5.94A16.42,16.42,0,0,1,142.77,29.62Z"/><path class="cls-3" d="M160.43,17.7V42.44h-7.85a1.53,1.53,0,0,1-.92-.25.81.81,0,0,1-.33-.7,1,1,0,0,1,.67-1l.64-.24a.5.5,0,0,0,.19-.21,1.59,1.59,0,0,0,.2-.92V21a1.6,1.6,0,0,0-.2-.93.5.5,0,0,0-.19-.21l-.64-.24a1,1,0,0,1-.67-1,.82.82,0,0,1,.33-.7,1.53,1.53,0,0,1,.92-.24h7.85Zm1.4,13.19v-2.1a4.28,4.28,0,0,0,1.43-1.11,3.89,3.89,0,0,0,.69-1.59,2.14,2.14,0,0,1,.35-.95.73.73,0,0,1,.61-.27.75.75,0,0,1,.74.46,3,3,0,0,1,.11,1.07v6.9a2.72,2.72,0,0,1-.17,1.18.66.66,0,0,1-.64.33.74.74,0,0,1-.6-.26,2,2,0,0,1-.35-.85,4.91,4.91,0,0,0-.81-1.92A2.47,2.47,0,0,0,161.83,30.89Zm.09-13.19h6.71v6.41a1.35,1.35,0,0,1-.2.82.74.74,0,0,1-.63.25.76.76,0,0,1-.54-.16,1.67,1.67,0,0,1-.31-.67,6.87,6.87,0,0,0-1.86-3.21,5.48,5.48,0,0,0-3.17-1.32Zm0,24.74v-2a7,7,0,0,0,1.79-.51,5.4,5.4,0,0,0,1.43-1,6,6,0,0,0,1.14-1.38,10.08,10.08,0,0,0,.81-1.9,2.06,2.06,0,0,1,.38-.78.72.72,0,0,1,.55-.21.7.7,0,0,1,.65.3,2.14,2.14,0,0,1,.18,1v6.4Z"/><path class="cls-3" d="M170.68,17.7h4.38v2.19a3.44,3.44,0,0,0-1.21,1.25,8.11,8.11,0,0,0-1,2.92l-.17,1.1a1.48,1.48,0,0,1-.36.83.89.89,0,0,1-.69.3A.86.86,0,0,1,171,26a1.25,1.25,0,0,1-.28-.85Zm13.13,0V39a1.63,1.63,0,0,0,.25,1,.6.6,0,0,0,.25.22c.08,0,.33.11.77.23a1,1,0,0,1,.8,1,.88.88,0,0,1-.44.76,2,2,0,0,1-1.06.22h-8.53a2.07,2.07,0,0,1-1.11-.25.82.82,0,0,1-.38-.73,1,1,0,0,1,.8-1c.44-.12.69-.2.77-.23a.52.52,0,0,0,.23-.22,1.63,1.63,0,0,0,.25-1V17.7Zm5.77,0v7.41a1.3,1.3,0,0,1-.28.85.88.88,0,0,1-.71.33.9.9,0,0,1-.69-.3,1.63,1.63,0,0,1-.36-.83l-.16-1.1a8.11,8.11,0,0,0-1-2.92,3.74,3.74,0,0,0-1.22-1.25V17.7Z"/><path class="cls-4" d="M18.85,41.59H11a1.64,1.64,0,0,1-.93-.22.72.72,0,0,1-.32-.64.87.87,0,0,1,.66-.9A6.69,6.69,0,0,0,11,39.6a.49.49,0,0,0,.2-.19,1.46,1.46,0,0,0,.2-.85V21.88a1.46,1.46,0,0,0-.2-.85.57.57,0,0,0-.2-.19l-.64-.22a.88.88,0,0,1-.66-.9.73.73,0,0,1,.32-.65,1.64,1.64,0,0,1,.93-.22h8.29a1.64,1.64,0,0,1,.93.22.76.76,0,0,1,.32.65.88.88,0,0,1-.66.9l-.64.22A.5.5,0,0,0,19,21a1.46,1.46,0,0,0-.2.85V38.56a1.46,1.46,0,0,0,.2.85c.07.1.13.17.2.19a6.69,6.69,0,0,0,.64.23.87.87,0,0,1,.66.9.74.74,0,0,1-.32.64,1.64,1.64,0,0,1-.93.22Z"/><path class="cls-4" d="M25.72,24.7l1.76,2.93v8.93a4.15,4.15,0,0,0,.39,1.92,3.06,3.06,0,0,0,1.24,1.23l.5.28a.82.82,0,0,1,.44.75.79.79,0,0,1-.32.64,1.94,1.94,0,0,1-1.1.21H24.78c-1,0-1.51-.28-1.51-.86a.73.73,0,0,1,.15-.48,3.49,3.49,0,0,1,.7-.47,3.36,3.36,0,0,0,1.6-3.22Zm7-5.85,8.86,15.4v7.34H37L25.7,22.1a5.72,5.72,0,0,0-.6-.88,1.42,1.42,0,0,0-.6-.37l-.63-.23a.81.81,0,0,1-.4-.3.86.86,0,0,1-.15-.49,1,1,0,0,1,.15-.52.78.78,0,0,1,.4-.34,5.45,5.45,0,0,1,1.53-.12Zm8.86,12.73-1.76-3V24a4.54,4.54,0,0,0-.41-2.14A3.31,3.31,0,0,0,38,20.57a1.27,1.27,0,0,1-.49-.36.83.83,0,0,1-.13-.49.77.77,0,0,1,.29-.66,1.65,1.65,0,0,1,.94-.21h4.17a1.64,1.64,0,0,1,1.12.27.86.86,0,0,1,.28.63.72.72,0,0,1-.16.52,2.93,2.93,0,0,1-.76.48,2.92,2.92,0,0,0-1.33,1.38A4.49,4.49,0,0,0,41.56,24Z"/><path class="cls-4" d="M45.49,18.85h4.39v2A3.3,3.3,0,0,0,48.66,22a7,7,0,0,0-1,2.68l-.16,1a1.39,1.39,0,0,1-.36.76.9.9,0,0,1-.69.28.91.91,0,0,1-.71-.3,1.14,1.14,0,0,1-.28-.79Zm13.14,0V38.43a1.44,1.44,0,0,0,.24.93.73.73,0,0,0,.25.21l.77.21a.89.89,0,0,1,.8.91.78.78,0,0,1-.43.7,2,2,0,0,1-1.07.2H50.66a2.2,2.2,0,0,1-1.11-.22.74.74,0,0,1-.37-.68.88.88,0,0,1,.8-.91c.43-.11.69-.18.76-.21a.57.57,0,0,0,.24-.21,1.44,1.44,0,0,0,.25-.93V18.85Zm5.76,0v6.81a1.13,1.13,0,0,1-.27.79.93.93,0,0,1-.71.3.9.9,0,0,1-.69-.28,1.27,1.27,0,0,1-.36-.76l-.17-1a7,7,0,0,0-1-2.68A3.52,3.52,0,0,0,60,20.87v-2Z"/><path class="cls-4" d="M75.54,18.85V41.59H67.69a1.58,1.58,0,0,1-.92-.22.73.73,0,0,1-.33-.64.86.86,0,0,1,.67-.9l.64-.23a.48.48,0,0,0,.19-.19,1.46,1.46,0,0,0,.2-.85V21.88a1.46,1.46,0,0,0-.2-.85.56.56,0,0,0-.19-.19l-.64-.22a.88.88,0,0,1-.67-.9.74.74,0,0,1,.33-.65,1.58,1.58,0,0,1,.92-.22h7.85ZM76.94,31V29.05a4.28,4.28,0,0,0,1.43-1,3.4,3.4,0,0,0,.68-1.47,2,2,0,0,1,.35-.87.8.8,0,0,1,.62-.24.73.73,0,0,1,.73.41,2.54,2.54,0,0,1,.12,1V33.2a2.44,2.44,0,0,1-.17,1.08.7.7,0,0,1-.65.3.81.81,0,0,1-.6-.23,1.89,1.89,0,0,1-.35-.79,4.18,4.18,0,0,0-.8-1.76A2.51,2.51,0,0,0,76.94,31ZM77,18.85h6.72v5.9a1.18,1.18,0,0,1-.2.75.83.83,0,0,1-.64.23.78.78,0,0,1-.53-.15,1.44,1.44,0,0,1-.32-.62A6.24,6.24,0,0,0,80.2,22,5.75,5.75,0,0,0,77,20.8Zm0,22.74v-1.8a7.59,7.59,0,0,0,1.79-.46,5.43,5.43,0,0,0,1.42-.92,6.1,6.1,0,0,0,1.15-1.27,8.43,8.43,0,0,0,.8-1.74,1.91,1.91,0,0,1,.39-.73.91.91,0,0,1,1.2.08,1.89,1.89,0,0,1,.18,1v5.88Z"/><path class="cls-4" d="M95.57,18.85V38.43a1.38,1.38,0,0,0,.25.93.65.65,0,0,0,.25.21c.07,0,.33.1.76.21a.88.88,0,0,1,.8.91.78.78,0,0,1-.43.7,2,2,0,0,1-1,.2H87.72a1.64,1.64,0,0,1-.93-.22.74.74,0,0,1-.32-.64.86.86,0,0,1,.67-.9l.64-.23a.48.48,0,0,0,.19-.19,1.46,1.46,0,0,0,.2-.85V21.88A1.46,1.46,0,0,0,88,21a.56.56,0,0,0-.19-.19l-.64-.22a.88.88,0,0,1-.67-.9.76.76,0,0,1,.32-.65,1.64,1.64,0,0,1,.93-.22h7.85Zm5.11,11.6A13.79,13.79,0,0,1,103,31a5.68,5.68,0,0,1,1.49.77A3.6,3.6,0,0,1,105.61,33a3.25,3.25,0,0,1,.37,1.52v3.45c0,.35.12.53.35.53a.35.35,0,0,0,.23-.07,2.25,2.25,0,0,0,.25-.29,1.14,1.14,0,0,1,.85-.57.81.81,0,0,1,.57.3.87.87,0,0,1,.28.6,2.44,2.44,0,0,1-.49,1.26A5.84,5.84,0,0,1,106.8,41a4.29,4.29,0,0,1-1.49.79,6.56,6.56,0,0,1-1.88.24A4.62,4.62,0,0,1,100,40.79a4.81,4.81,0,0,1-1.23-3.51v-2.8c0-.62,0-1,0-1.08a2.24,2.24,0,0,0-.47-1.15,2,2,0,0,0-1.38-.69V29.78a2.45,2.45,0,0,0,1.28-.47,1.45,1.45,0,0,0,.46-.68,3.91,3.91,0,0,0,.13-1.13V23.08a2.49,2.49,0,0,0-.41-1.56,2.78,2.78,0,0,0-1.48-.82V18.85h.44a31.42,31.42,0,0,1,3.15.13,7.12,7.12,0,0,1,3.45,1.27,5.09,5.09,0,0,1,2.18,4.41,5.26,5.26,0,0,1-1.47,3.85,5,5,0,0,1-1.44,1A19.76,19.76,0,0,1,100.68,30.45Z"/><path class="cls-4" d="M19.57,11H17.66v1h.69a1.65,1.65,0,0,1,1.19.42A1.55,1.55,0,0,1,20,13.58a1.54,1.54,0,0,1-.44,1.16,1.58,1.58,0,0,1-1.16.45h-1.6v-5h2.79Zm-1.91,1.79v1.53h.7a.7.7,0,0,0,.54-.21.83.83,0,0,0,.2-.58.72.72,0,0,0-.19-.53.76.76,0,0,0-.53-.21Z"/><path class="cls-4" d="M22.08,12.56l.78-2.35h.95l-1.49,4.11-.12.27a1.07,1.07,0,0,1-1,.67h-.31v-.83l.23,0a.56.56,0,0,0,.3-.08.56.56,0,0,0,.18-.28l.11-.32L20.2,10.21h.94Z"/><path class="cls-4" d="M25.66,13.16h-.51v2h-.87v-5h.87v2h.41l1-2h1.07l-1.32,2.36,1.46,2.62h-1Z"/><path class="cls-4" d="M29.29,10.21l1.09,3.61,1.09-3.61h1.15v5h-.88V13.83l.09-2.35-1.15,3.71h-.6l-1.15-3.71L29,13.83v1.36h-.88v-5Z"/><path class="cls-4" d="M36,13H34.27v1.34h2v.83H33.39v-5h2.85V11h-2v1.19H36Z"/><path class="cls-4" d="M38.15,13.16h-.51v2h-.87v-5h.87v2h.41l1-2h1.07l-1.32,2.36,1.46,2.62h-1Z"/><path class="cls-4" d="M43.19,13H41.51v1.34h2v.83H40.63v-5h2.85V11h-2v1.19h1.68Z"/><path class="cls-4" d="M44.88,13.43v1.76H44v-5h1.66a1.67,1.67,0,0,1,.85.21,1.36,1.36,0,0,1,.56.58,1.84,1.84,0,0,1,.19.86A1.55,1.55,0,0,1,46.84,13a1.65,1.65,0,0,1-1.19.42Zm0-.83h.78a.67.67,0,0,0,.53-.19.71.71,0,0,0,.19-.54.88.88,0,0,0-.19-.6.65.65,0,0,0-.51-.23h-.8Z"/><path class="cls-4" d="M51.21,13.53a1.87,1.87,0,0,1-.51,1.27,1.63,1.63,0,0,1-1.2.46,1.51,1.51,0,0,1-1.29-.65,2.91,2.91,0,0,1-.47-1.77v-.3A3.56,3.56,0,0,1,48,11.27a1.84,1.84,0,0,1,.62-.83,1.53,1.53,0,0,1,.94-.3,1.62,1.62,0,0,1,1.19.46,2.06,2.06,0,0,1,.52,1.3h-.88a1.16,1.16,0,0,0-.23-.7.78.78,0,0,0-.6-.22.74.74,0,0,0-.66.37,2.39,2.39,0,0,0-.22,1.14v.38a2.51,2.51,0,0,0,.21,1.18.72.72,0,0,0,.66.37.75.75,0,0,0,.6-.22,1,1,0,0,0,.23-.67Z"/><path class="cls-4" d="M53.18,13.16h-.51v2h-.88v-5h.88v2h.4l1-2h1.07l-1.31,2.36,1.45,2.62h-1Z"/><path class="cls-4" d="M58.06,14.16H56.52l-.29,1H55.3l1.58-5h.82l1.59,5h-.93Zm-1.3-.83h1.07l-.54-1.86Z"/><path class="cls-4" d="M61.66,15.19v-1.8h-.72l-.76,1.8h-1l.91-2.12a1.47,1.47,0,0,1-.66-1.32,1.52,1.52,0,0,1,.41-1.13A1.59,1.59,0,0,1,61,10.21h1.51v5Zm-1.3-3.36a.86.86,0,0,0,.17.6.67.67,0,0,0,.52.19h.61V11h-.61C60.59,11,60.36,11.3,60.36,11.83Z"/><path class="cls-4" d="M66.15,13.16h-.51v2h-.88v-5h.88v2H66l1-2h1.07l-1.31,2.36,1.45,2.62H67.24Z"/><path class="cls-4" d="M72,12.81a3.41,3.41,0,0,1-.23,1.29,1.88,1.88,0,0,1-.63.86,1.58,1.58,0,0,1-1,.3,1.6,1.6,0,0,1-1-.3,1.94,1.94,0,0,1-.64-.85,3.34,3.34,0,0,1-.23-1.27v-.25a3.23,3.23,0,0,1,.23-1.29,1.9,1.9,0,0,1,.64-.86,1.55,1.55,0,0,1,.94-.3,1.58,1.58,0,0,1,1,.3,2,2,0,0,1,.64.86A3.41,3.41,0,0,1,72,12.59Zm-.89-.22a2.38,2.38,0,0,0-.24-1.19.76.76,0,0,0-.69-.41.75.75,0,0,0-.68.4,2.34,2.34,0,0,0-.24,1.18v.24A2.43,2.43,0,0,0,69.54,14a.77.77,0,0,0,1.37,0,2.45,2.45,0,0,0,.24-1.18Z"/><path class="cls-4" d="M73.82,10.21l1.09,3.61L76,10.21h1.16v5h-.88V13.83l.08-2.35-1.15,3.71h-.6l-1.15-3.71.09,2.35v1.36h-.88v-5Z"/><path class="cls-4" d="M81.39,15.19h-.88V11h-1.7v4.15h-.88v-5h3.46Z"/><path class="cls-4" d="M84.57,14.16H83l-.29,1H81.8l1.59-5h.81l1.6,5h-.94Zm-1.3-.83h1.06l-.54-1.86Z"/><path class="cls-4" d="M89.66,15.19h-.88V13.06H87.07v2.13h-.88v-5h.88v2h1.71v-2h.88Z"/><path class="cls-4" d="M93,10.21h.88v5H93V11.88l-1.7,3.31H90.4v-5h.88v3.31Z"/><path class="cls-4" d="M96.59,15.19v-1.8h-.71l-.77,1.8h-1l.91-2.12a1.47,1.47,0,0,1-.66-1.32,1.52,1.52,0,0,1,.41-1.13A1.63,1.63,0,0,1,96,10.21h1.5v5Zm-1.3-3.36a.91.91,0,0,0,.17.6.67.67,0,0,0,.53.19h.6V11H96C95.52,11,95.29,11.3,95.29,11.83Z"/><path class="cls-4" d="M31.92,45.59h.9v5h-.9V47.26l-1.74,3.31h-.89v-5h.89V48.9Z"/><path class="cls-4" d="M36.44,46.42H34.49v4.15H33.6v-5h2.84Z"/><path class="cls-4" d="M37.89,48.81v1.76H37v-5h1.69a1.82,1.82,0,0,1,.86.2,1.41,1.41,0,0,1,.57.59,1.85,1.85,0,0,1,.2.86,1.54,1.54,0,0,1-.44,1.15,1.66,1.66,0,0,1-1.21.42Zm0-.83h.8a.7.7,0,0,0,.54-.19.78.78,0,0,0,.19-.55.93.93,0,0,0-.19-.59.65.65,0,0,0-.52-.23h-.82Z"/><path class="cls-4" d="M42.85,49.54H41.29l-.3,1H40l1.61-5h.83l1.63,5h-1Zm-1.32-.83h1.08l-.54-1.86Z"/><path class="cls-4" d="M49.57,50.57h-.9V48.43H46.93v2.14H46v-5h.9v2h1.74v-2h.9Z"/><path class="cls-4" d="M52.85,49.54H51.28l-.29,1H50l1.62-5h.83l1.62,5h-1Zm-1.32-.83h1.08l-.54-1.86Z"/><path class="cls-4" d="M56.93,48.81v1.76H56v-5h1.69a1.86,1.86,0,0,1,.87.2,1.54,1.54,0,0,1,.57.59,1.85,1.85,0,0,1,.2.86,1.54,1.54,0,0,1-.44,1.15,1.68,1.68,0,0,1-1.21.42Zm0-.83h.79a.74.74,0,0,0,.55-.19.78.78,0,0,0,.18-.55.92.92,0,0,0-.18-.59.65.65,0,0,0-.52-.23h-.82Z"/><path class="cls-4" d="M62.58,48.4H60.87v1.34h2v.83H60v-5h2.91v.83h-2v1.19h1.71Z"/><path class="cls-4" d="M65.55,47a.56.56,0,0,0-.2-.45.82.82,0,0,0-.51-.16.72.72,0,0,0-.47.16.53.53,0,0,0-.19.43h-.9a1.4,1.4,0,0,1,.2-.73,1.36,1.36,0,0,1,.56-.5,1.68,1.68,0,0,1,.8-.18,1.79,1.79,0,0,1,1.18.36,1.33,1.33,0,0,1,.42,1,1.1,1.1,0,0,1-.17.61,1.31,1.31,0,0,1-.5.46,1.09,1.09,0,0,1,.55.43,1.3,1.3,0,0,1,.19.73,1.36,1.36,0,0,1-.45,1.07,1.82,1.82,0,0,1-1.22.39,1.93,1.93,0,0,1-.85-.18,1.3,1.3,0,0,1-.77-1.26h.9a.59.59,0,0,0,.2.44.77.77,0,0,0,.52.18.85.85,0,0,0,.57-.18.65.65,0,0,0,.2-.47.76.76,0,0,0-.18-.57.78.78,0,0,0-.54-.17h-.54v-.79h.56A.59.59,0,0,0,65.55,47Z"/><path class="cls-4" d="M68.76,47.94l.79-2.35h1L69,49.7l-.12.26a1.1,1.1,0,0,1-1,.68l-.32,0V49.8h.24a.56.56,0,0,0,.3-.07.51.51,0,0,0,.19-.28l.11-.32-1.52-3.55h1Z"/><path class="cls-4" d="M74.36,45.59v5h-.9V46.42H72.3l-.07,1.76a6.38,6.38,0,0,1-.19,1.4,1.52,1.52,0,0,1-.45.75,1.33,1.33,0,0,1-.8.24h-.23v-.83h.15a.64.64,0,0,0,.48-.45,4.87,4.87,0,0,0,.18-1.41l.08-2.28Z"/><path class="cls-4" d="M76,47.38h.7a1.73,1.73,0,0,1,1.22.43A1.51,1.51,0,0,1,78.4,49,1.54,1.54,0,0,1,78,50.12a1.67,1.67,0,0,1-1.18.45H75.13v-5H76Zm0,.83v1.53h.72a.7.7,0,0,0,.54-.21A.81.81,0,0,0,77.5,49a.71.71,0,0,0-.2-.53.73.73,0,0,0-.53-.21Z"/><path class="cls-4" d="M81.94,46.42H80.61v4.15h-.89V46.42H78.4v-.83h3.54Z"/><path class="cls-4" d="M84.54,49.54H83l-.29,1h-1l1.62-5h.83l1.62,5h-1Zm-1.32-.83H84.3l-.54-1.86Z"/><path class="cls-4" d="M89.11,46.42H87.78v4.15h-.89V46.42H85.57v-.83h3.54Z"/><polygon class="cls-4" points="91.13 50.78 93.88 48.51 91.12 46.26 91.13 50.78"/><polygon class="cls-4" points="27.13 46.26 24.37 48.51 27.12 50.78 27.13 46.26"/></g></g></svg>