<svg xmlns="http://www.w3.org/2000/svg" width="143" height="26" viewBox="0 0 143 26">
  <g fill="none" fill-rule="evenodd" transform="translate(-636 -199)">
    <rect width="2001" height="840" fill="none"/>
    <g transform="translate(636 199)">
      <path fill="#FFD000" d="M86.389916,10.5584034 C88.0285714,11.4869748 88.8478992,12.9071429 88.8478992,14.7915966 C88.8478992,18.287395 86.5264706,20.4176471 82.1840336,20.4176471 L74.1,20.4176471 L74.1,1.3 L81.692437,1.3 C85.9802521,1.3 88.3016807,3.21176471 88.3016807,6.6802521 C88.3016807,8.34621849 87.6735294,9.62983193 86.389916,10.5584034 Z M81.3647059,5.99747899 L79.5621849,5.99747899 L79.5621849,8.56470588 L81.6651261,8.53739496 C82.4571429,8.42815126 82.8394958,8.01848739 82.8394958,7.28109244 C82.8394958,6.43445378 82.1567227,5.99747899 81.3647059,5.99747899 Z M79.5621849,15.7201681 L81.8563025,15.7201681 C82.7302521,15.7201681 83.3857143,15.1466387 83.3857143,14.3546218 C83.3857143,13.589916 82.9760504,13.1529412 82.1567227,13.0163866 L79.5621849,12.9890756 L79.5621849,15.7201681 Z M97.0957983,20.8 C95.047479,20.8 93.3268908,20.1172269 91.8794118,18.7243697 C90.4592437,17.3315126 89.7491597,15.6382353 89.7491597,13.589916 C89.7491597,11.5415966 90.4592437,9.84831933 91.8794118,8.45546218 C93.2995798,7.06260504 95.047479,6.37983193 97.0957983,6.37983193 C99.1441176,6.37983193 100.892017,7.06260504 102.312185,8.45546218 C103.732353,9.84831933 104.442437,11.5415966 104.442437,13.589916 C104.442437,15.6382353 103.732353,17.3315126 102.312185,18.7243697 C100.892017,20.1172269 99.1441176,20.8 97.0957983,20.8 Z M95.4298319,15.3378151 C95.8668067,15.7747899 96.4130252,15.9932773 97.0957983,15.9932773 C97.7785714,15.9932773 98.3247899,15.7747899 98.7344538,15.3378151 C99.1714286,14.8735294 99.389916,14.3 99.389916,13.589916 C99.389916,12.8798319 99.1714286,12.3063025 98.7344538,11.8693277 C98.3247899,11.405042 97.7785714,11.1865546 97.0957983,11.1865546 C96.4130252,11.1865546 95.8668067,11.405042 95.4298319,11.8693277 C95.0201681,12.3063025 94.8016807,12.8798319 94.8016807,13.589916 C94.8016807,14.3 95.0201681,14.8735294 95.4298319,15.3378151 Z M112.772269,20.8 C110.72395,20.8 109.003361,20.1172269 107.555882,18.7243697 C106.135714,17.3315126 105.42563,15.6382353 105.42563,13.589916 C105.42563,11.5415966 106.135714,9.84831933 107.555882,8.45546218 C108.97605,7.06260504 110.72395,6.37983193 112.772269,6.37983193 C114.820588,6.37983193 116.568487,7.06260504 117.988655,8.45546218 C119.408824,9.84831933 120.118908,11.5415966 120.118908,13.589916 C120.118908,15.6382353 119.408824,17.3315126 117.988655,18.7243697 C116.568487,20.1172269 114.820588,20.8 112.772269,20.8 Z M111.106303,15.3378151 C111.543277,15.7747899 112.089496,15.9932773 112.772269,15.9932773 C113.455042,15.9932773 114.001261,15.7747899 114.410924,15.3378151 C114.847899,14.8735294 115.066387,14.3 115.066387,13.589916 C115.066387,12.8798319 114.847899,12.3063025 114.410924,11.8693277 C114.001261,11.405042 113.455042,11.1865546 112.772269,11.1865546 C112.089496,11.1865546 111.543277,11.405042 111.106303,11.8693277 C110.696639,12.3063025 110.478151,12.8798319 110.478151,13.589916 C110.478151,14.3 110.696639,14.8735294 111.106303,15.3378151 Z M137.816387,6.37983193 C140.984454,6.37983193 142.868908,8.42815126 142.868908,12.1151261 L142.868908,20.4176471 L137.816387,20.4176471 L137.816387,12.7978992 C137.816387,11.760084 137.352101,11.2411765 136.423529,11.2411765 C135.358403,11.2411765 134.812185,11.9239496 134.812185,13.2621849 L134.812185,20.4176471 L129.759664,20.4176471 L129.759664,12.7978992 C129.759664,11.760084 129.295378,11.2411765 128.366807,11.2411765 C127.301681,11.2411765 126.755462,11.9239496 126.755462,13.2621849 L126.755462,20.4176471 L121.702941,20.4176471 L121.702941,6.76218487 L126.755462,6.76218487 L126.755462,8.04579832 C127.656723,6.92605042 128.885714,6.37983193 130.469748,6.37983193 C132.026471,6.37983193 133.173529,6.95336134 133.883613,8.07310924 C134.866807,6.95336134 136.177731,6.37983193 137.816387,6.37983193 Z"/>
      <path fill="#64B248" d="M8.30139165,20.7772926 C3.98011928,20.7772926 0.995029821,18.8471616 0,15.7816594 L4.86143141,12.9716157 C5.51530815,14.6462882 6.70934394,15.4978166 8.44353877,15.4978166 C9.72286282,15.4978166 10.3767396,15.1572052 10.3767396,14.4759825 C10.3767396,14.1069869 10.2345924,13.7947598 9.6944334,13.5676856 C9.43856859,13.4541485 9.18270378,13.3689956 8.98369781,13.3122271 C8.78469185,13.2270742 8.44353877,13.1419214 7.96023857,13 L6.85149105,12.6877729 C2.89980119,11.4956332 0.909741551,9.36681223 0.909741551,6.30131004 C0.909741551,4.48471616 1.56361829,2.98034934 2.87137177,1.78820961 C4.20755467,0.596069869 5.9417495,0 8.07395626,0 C11.4570577,0 14.3,1.64628821 15.5508946,4.62663755 L10.8316103,7.37991266 C10.2914513,5.98908297 9.38170974,5.27947598 8.10238569,5.27947598 C7.10735586,5.27947598 6.59562624,5.73362445 6.59562624,6.32969432 C6.59562624,6.75545852 6.82306163,7.06768559 7.24950298,7.29475983 C7.70437376,7.52183406 8.55725646,7.80567686 9.83658052,8.17467249 C11.7413519,8.74235808 12.7363817,9.13973799 14.0725646,10.0764192 C15.4087475,10.9847162 16.0626243,12.4606987 16.0626243,14.419214 C16.0626243,18.4781659 13.0775348,20.7772926 8.30139165,20.7772926 Z M26.5530815,5.73362445 C28.4578529,5.73362445 30.0214712,6.44323144 31.2439364,7.86244541 C32.4664016,9.28165939 33.0634195,11.069869 33.0634195,13.2270742 C33.0634195,15.3842795 32.4664016,17.1724891 31.2439364,18.5917031 C30.0214712,20.010917 28.4578529,20.720524 26.5530815,20.720524 C24.9326044,20.720524 23.6532803,20.1528384 22.7435388,19.0458515 L22.7435388,26 L17.4840954,26 L17.4840954,6.13100437 L22.7435388,6.13100437 L22.7435388,7.40829694 C23.6532803,6.30131004 24.9326044,5.73362445 26.5530815,5.73362445 Z M23.4258449,15.128821 C23.9091451,15.639738 24.506163,15.8951965 25.2737575,15.8951965 C26.0413519,15.8951965 26.6383698,15.639738 27.0932406,15.128821 C28.0314115,14.1069869 28.0314115,12.3471616 27.0932406,11.3253275 C26.6383698,10.8144105 26.0413519,10.558952 25.2737575,10.558952 C24.506163,10.558952 23.9091451,10.8144105 23.4258449,11.3253275 C22.5161034,12.3471616 22.5161034,14.1069869 23.4258449,15.128821 Z M41.7343936,20.720524 C39.6021869,20.720524 37.8111332,20.010917 36.3043738,18.5633188 C34.8260437,17.1157205 34.0868787,15.3558952 34.0868787,13.2270742 C34.0868787,11.0982533 34.8260437,9.33842795 36.3043738,7.89082969 C37.7827038,6.44323144 39.6021869,5.73362445 41.7343936,5.73362445 C43.8666004,5.73362445 45.6860835,6.44323144 47.1644135,7.89082969 C48.6427435,9.33842795 49.3819085,11.0982533 49.3819085,13.2270742 C49.3819085,15.3558952 48.6427435,17.1157205 47.1644135,18.5633188 C45.6860835,20.010917 43.8666004,20.720524 41.7343936,20.720524 Z M40.0001988,15.0436681 C40.4550696,15.4978166 41.0236581,15.7248908 41.7343936,15.7248908 C42.4451292,15.7248908 43.0137177,15.4978166 43.440159,15.0436681 C43.8950298,14.5611354 44.1224652,13.9650655 44.1224652,13.2270742 C44.1224652,12.489083 43.8950298,11.8930131 43.440159,11.4388646 C43.0137177,10.9563319 42.4451292,10.7292576 41.7343936,10.7292576 C41.0236581,10.7292576 40.4550696,10.9563319 40.0001988,11.4388646 C39.5737575,11.8930131 39.3463221,12.489083 39.3463221,13.2270742 C39.3463221,13.9650655 39.5737575,14.5611354 40.0001988,15.0436681 Z M56.2902584,6.13100437 L56.2902584,8.88427948 C56.8304175,6.95414847 58.5077535,5.84716157 60.554672,5.84716157 L60.554672,11.5240175 C59.417495,11.3820961 58.4224652,11.6091703 57.5695825,12.2052402 C56.7166998,12.80131 56.2902584,13.7379913 56.2902584,15.0436681 L56.2902584,20.3231441 L51.0308151,20.3231441 L51.0308151,6.13100437 L56.2902584,6.13100437 Z M71.5,6.13100437 L71.5,11.1266376 L68.5149105,11.1266376 L68.5149105,14.1921397 C68.5149105,15.6681223 69.5667992,15.7248908 71.5,15.6113537 L71.5,20.3231441 C65.5582505,21.1462882 63.2554672,19.3864629 63.2554672,14.4759825 L63.2554672,11.1266376 L61.2654076,11.1266376 L61.2654076,6.13100437 L63.2554672,6.13100437 L63.2554672,3.71834061 L68.5149105,2.15720524 L68.5149105,6.13100437 L71.5,6.13100437 Z"/>
    </g>
  </g>
</svg>
