<?xml version="1.0" encoding="utf-8"?>
<!-- Generator: Adobe Illustrator 22.0.1, SVG Export Plug-In . SVG Version: 6.00 Build 0)  -->
<svg version="1.1" id="Layer_1" xmlns="http://www.w3.org/2000/svg" xmlns:xlink="http://www.w3.org/1999/xlink" x="0px" y="0px"
	 viewBox="0 0 64 32" style="enable-background:new 0 0 64 32;" xml:space="preserve">
<style type="text/css">
	.st0{fill:#FFFFFF;}
	.st1{fill:#F6DC00;}
</style>
<g>
	<polygon class="st0" points="4.6,15.2 7,14.8 8.8,20.4 10.6,14.9 12.8,14.9 9.8,23.3 7.5,23.2 	"/>
	<path class="st0" d="M16.9,14.8l-2.2,0l-3,8.3l2.1,0.1l0.5-1.8l2.9,0l0.6,1.8l1.9-0.5L16.9,14.8z M14.8,19.8l0.8-2.7l0.9,2.7
		L14.8,19.8z"/>
	<path class="st0" d="M25.3,19.8c0,0,1.5-0.2,1.5-2.4s-2.3-2.6-2.3-2.6l-3.7,0l-0.1,8.2l2.1,0v-2.8l0.5,0l1.8,2.9l2.2-0.4L25.3,19.8
		z M22.8,18.6l0-2.1c0,0,1.8-0.4,1.8,1S22.8,18.6,22.8,18.6z"/>
	<rect x="26" y="3.5" transform="matrix(0.7071 -0.7071 0.7071 0.7071 4.1095 20.8021)" class="st0" width="2.4" height="3.8"/>
	<path class="st0" d="M24.6,5.3l-5.3,5.3l-1.9,4.5l4.6-1.8L27.3,8L24.6,5.3z M18.7,13.8l1.3-2.6l1.3,1.3L18.7,13.8z"/>
	<polygon class="st0" points="26.4,10.3 24.4,12.3 28.5,12.3 28.5,25.3 3.5,25.3 3.5,12.3 17.5,12.3 18.3,10.3 1.5,10.3 1.5,27.3 
		10,27.3 10,28.8 22,28.8 22,27.3 30.5,27.3 30.5,10.3 	"/>
</g>
<g>
	<polygon class="st1" points="36.6,15.2 39,14.8 40.8,20.4 42.6,14.9 44.8,14.9 41.8,23.3 39.5,23.2 	"/>
	<path class="st1" d="M48.9,14.8l-2.2,0l-3,8.3l2.1,0.1l0.5-1.8l2.9,0l0.6,1.8l1.9-0.5L48.9,14.8z M46.8,19.8l0.8-2.7l0.9,2.7
		L46.8,19.8z"/>
	<path class="st1" d="M57.3,19.8c0,0,1.5-0.2,1.5-2.4s-2.3-2.6-2.3-2.6l-3.7,0l-0.1,8.2l2.1,0v-2.8l0.5,0l1.8,2.9l2.2-0.4L57.3,19.8
		z M54.8,18.6l0-2.1c0,0,1.8-0.4,1.8,1S54.8,18.6,54.8,18.6z"/>
	<rect x="58" y="3.5" transform="matrix(0.7071 -0.7071 0.7071 0.7071 13.482 43.4295)" class="st1" width="2.4" height="3.8"/>
	<path class="st1" d="M56.6,5.3l-5.3,5.3l-1.9,4.5l4.6-1.8L59.3,8L56.6,5.3z M50.7,13.8l1.3-2.6l1.3,1.3L50.7,13.8z"/>
	<polygon class="st1" points="58.4,10.3 56.4,12.3 60.5,12.3 60.5,25.3 35.5,25.3 35.5,12.3 49.5,12.3 50.3,10.3 33.5,10.3 
		33.5,27.3 42,27.3 42,28.8 54,28.8 54,27.3 62.5,27.3 62.5,10.3 	"/>
</g>
</svg>
