<svg width="58" height="55" viewBox="0 0 58 55" fill="none" xmlns="http://www.w3.org/2000/svg">
<g clip-path="url(#clip0_125_952)">
<path fill-rule="evenodd" clip-rule="evenodd" d="M5.10089 0H12.4385L7.83641 25.5369H0.498779L5.10089 0Z" fill="#FEFEFE"/>
<path fill-rule="evenodd" clip-rule="evenodd" d="M19.7762 0H12.4386L17.0407 25.5369H24.3783L19.7762 0Z" fill="#FEFEFE"/>
<path fill-rule="evenodd" clip-rule="evenodd" d="M28.9965 0H36.318L31.7159 25.5369H24.3783L28.9965 0Z" fill="#FEFEFE"/>
<path fill-rule="evenodd" clip-rule="evenodd" d="M43.6556 0H36.318L40.9362 25.5369H48.2577L43.6556 0Z" fill="#FEFEFE"/>
<path fill-rule="evenodd" clip-rule="evenodd" d="M53.8898 25.5369C55.9173 25.5369 57.5586 23.8795 57.5586 21.868C57.5586 19.8405 55.9173 18.1992 53.8898 18.1992C51.8623 18.1992 50.2209 19.8566 50.2209 21.868C50.2209 23.8955 51.8623 25.5369 53.8898 25.5369Z" fill="#FEFEFE"/>
<path d="M11.4087 29.1574C11.4087 29.1574 6.2917 38.8604 5.53541 40.8719C5.43886 41.1132 5.42277 41.2902 5.43886 41.4511C5.47104 41.7891 5.7446 41.8695 5.88942 41.8534C5.98596 41.8373 6.0986 41.7891 6.25952 41.6764C7.22499 41.0167 17.1694 28.8356 17.1694 28.8517C16.2039 31.3297 7.80428 45.6671 7.99738 47.2118C7.99738 47.2762 8.02956 47.3405 8.06174 47.3727C8.09392 47.4049 8.20656 47.4049 8.3192 47.4049C8.65712 47.3566 9.04331 46.7291 9.02722 46.2624C9.01113 46.0693 9.18813 45.6188 9.55823 44.8947C12.3098 39.4397 17.5073 30.2355 18.1992 28.0954C18.2636 27.8862 18.2958 27.7253 18.2797 27.5965C18.2636 27.3713 18.1188 27.2586 17.9257 27.2747C17.8131 27.2908 17.7004 27.3391 17.5556 27.4517C16.7993 28.031 6.38825 40.7592 6.32388 40.7592C6.2917 40.5339 9.6065 33.9043 11.5053 30.5413C12.5029 28.7551 12.8409 28.1276 12.8087 27.854C12.7926 27.7414 12.7121 27.677 12.6156 27.6287C12.5512 27.5805 12.4708 27.5644 12.4064 27.5805C11.2478 27.7092 1.54477 40.4374 1.15858 40.4696C0.917211 40.7753 0.209194 41.0006 0.0482814 41.4029C-0.0482663 41.6603 0.337925 41.8856 0.563203 41.8534H0.627568C1.6735 41.419 10.926 29.2218 11.4087 29.1574ZM13.9351 41.8051C15.0293 41.8051 15.9947 40.6144 16.6384 40.1156C16.6384 40.8558 17.0246 41.3868 17.8291 41.3868C19.0199 41.3868 21.8842 39.9546 21.8842 39.7776C21.8842 39.6489 21.6267 39.3915 21.5462 39.3915C21.5462 39.3915 19.0038 40.7431 17.8774 40.7431C17.3464 40.7431 17.1855 40.2926 17.2177 39.9225L17.282 39.3915C17.3464 39.3915 17.459 39.2466 17.459 39.0696C17.459 38.8604 17.3303 38.6352 16.8637 38.6352C15.6729 38.6352 13.2753 39.9064 13.2753 41.0006C13.2431 41.3868 13.4684 41.8051 13.9351 41.8051ZM14.1121 41.1615C13.9833 41.1776 13.8868 41.0971 13.8868 41.0167C13.8868 40.1799 15.7373 39.4075 16.5258 39.4075H16.5418C16.1557 39.7616 14.7235 41.1293 14.1121 41.1615ZM20.9026 41.7247C21.2888 41.7247 23.3806 39.9546 23.9599 39.9546L23.9921 39.9868C23.9921 40.1317 23.799 40.5983 23.799 41.0328C23.799 41.258 23.976 41.596 24.4588 41.596C25.1185 41.596 27.7897 40.5983 28.6264 39.7294C28.6264 39.6006 28.4011 39.4075 28.4011 39.4075C28.0954 39.6972 25.5369 40.9845 24.6519 40.9845C24.5231 40.9845 24.4748 40.8879 24.4748 40.8397C24.4748 40.5822 24.7162 39.9546 24.7162 39.5685C24.7162 39.3754 24.6197 39.2305 24.3461 39.2305C23.5898 39.2305 21.5784 40.8075 21.4175 40.8075C21.321 40.8075 21.2727 40.7592 21.2727 40.7109C21.2727 40.4535 21.9646 39.7937 21.9646 39.5845C21.9646 39.3754 21.8037 39.3271 21.7071 39.3271C21.3692 39.3271 20.4359 40.8075 20.4359 41.2741C20.4359 41.5638 20.6451 41.7247 20.9026 41.7247ZM27.0495 41.9339C27.2425 41.9339 27.4517 41.8695 27.6609 41.7569C28.031 41.5638 28.8517 40.7592 29.0287 40.3569C29.1091 40.196 29.1413 40.1317 29.254 40.1317C29.3022 40.1317 29.8815 40.4052 30.8792 40.4052C31.6837 40.4052 32.6331 39.8098 32.6331 39.7294C32.6331 39.5845 32.617 39.3915 32.2952 39.3915C32.1504 39.3915 31.555 39.8098 30.9275 39.8098C29.9942 39.8098 29.2701 39.4719 29.1252 39.3432C29.0448 39.2788 28.9 39.1984 28.8034 39.1984C28.2885 39.1984 26.5989 40.7753 26.5989 41.435C26.6311 41.6603 26.6954 41.9339 27.0495 41.9339ZM27.3713 41.1937C27.3713 41.081 28.1115 40.2926 28.2563 40.2926H28.2724C28.2724 40.4052 27.8218 40.9362 27.3713 41.1937ZM40.019 39.665C40.019 39.5202 39.8742 39.3915 39.8742 39.3915C39.6007 39.488 35.8514 41.9339 35.8675 41.9339C35.8836 41.8534 36.5111 40.55 36.5111 39.7616C36.5111 38.9892 36.2215 38.7961 35.787 38.7961C35.2721 38.7961 34.0331 39.9064 33.3733 40.4052C32.4561 41.0971 32.2308 41.1454 32.0699 41.1454L32.0538 41.1132C32.0538 40.9362 32.5366 40.1156 32.778 39.8259C32.971 39.6006 33.0354 39.4075 33.0354 39.2949C33.0354 39.1501 32.955 39.0696 32.8101 39.0696C32.6653 39.0696 32.44 39.1823 32.2469 39.4558C31.8929 39.9546 31.378 40.8558 31.378 41.4029C31.378 41.6764 31.6033 41.9017 31.9251 41.9017C32.971 41.9017 35.079 39.4558 35.6422 39.4558C35.7548 39.4558 35.8192 39.488 35.8192 39.7133C35.8192 40.5661 34.725 42.7223 34.725 42.7223C34.725 42.7223 25.1507 51.4599 25.1507 54.3403C25.1507 54.7264 25.376 54.9839 25.7622 54.9839C28.6103 54.9839 35.3526 43.2373 35.3526 43.2373C36.8169 41.9017 40.019 40.0512 40.019 39.665ZM34.1457 44.1223C34.1457 44.1223 27.9988 54.2276 25.9392 54.2276C25.8909 54.2276 25.8587 54.1793 25.8587 54.1311C25.8426 52.1518 34.1457 44.1223 34.1457 44.1223ZM39.134 41.8051C40.2282 41.8051 41.1937 40.6144 41.8373 40.1156C41.8373 40.8558 42.2235 41.3868 43.0281 41.3868C44.2189 41.3868 47.0831 39.9546 47.0831 39.7776C47.0831 39.6489 46.8256 39.3915 46.7452 39.3915C46.7452 39.3915 44.2028 40.7431 43.0764 40.7431C42.5454 40.7431 42.3844 40.2926 42.4166 39.9225L42.481 39.3915C42.5454 39.3915 42.658 39.2466 42.658 39.0696C42.658 38.8604 42.5293 38.6352 42.0626 38.6352C40.8719 38.6352 38.4743 39.9064 38.4743 41.0006C38.4582 41.3868 38.6674 41.8051 39.134 41.8051ZM39.311 41.1615C39.1823 41.1776 39.0857 41.0971 39.0857 41.0167C39.0857 40.1799 40.9362 39.4075 41.7247 39.4075H41.7408C41.3546 39.7616 39.9386 41.1293 39.311 41.1615ZM46.1015 41.7247C46.4877 41.7247 48.5796 39.9546 49.175 39.9546L49.2071 39.9868C49.2071 40.1317 49.0141 40.5983 49.0141 41.0328C49.0141 41.258 49.1911 41.596 49.6738 41.596C50.3335 41.596 53.0047 40.5983 53.8414 39.7294C53.8414 39.6006 53.6162 39.4075 53.6162 39.4075C53.3104 39.6972 50.7519 40.9845 49.8669 40.9845C49.7382 40.9845 49.6899 40.8879 49.6899 40.8397C49.6899 40.5822 49.9313 39.9546 49.9313 39.5685C49.9313 39.3754 49.8347 39.2305 49.5612 39.2305C48.8049 39.2305 46.7935 40.8075 46.6325 40.8075C46.536 40.8075 46.4877 40.7592 46.4877 40.7109C46.4877 40.4535 47.1796 39.7937 47.1796 39.5845C47.1796 39.3754 47.0187 39.3271 46.9222 39.3271C46.5843 39.3271 45.651 40.8075 45.651 41.2741C45.6349 41.5638 45.8441 41.7247 46.1015 41.7247Z" fill="#FEFEFE"/>
</g>
<defs>
<clipPath id="clip0_125_952">
<rect width="57.5585" height="55" fill="white"/>
</clipPath>
</defs>
</svg>
