<svg width="55" height="55" viewBox="0 0 55 55" fill="none" xmlns="http://www.w3.org/2000/svg">
<path fill-rule="evenodd" clip-rule="evenodd" d="M27.4898 0C42.6763 0 54.9797 12.3034 54.9797 27.4898C54.9797 42.6763 42.6763 54.9797 27.4898 54.9797C12.3034 54.9797 0 42.6763 0 27.4898C0 12.3034 12.3034 0 27.4898 0Z" fill="#FCE625"/>
<path fill-rule="evenodd" clip-rule="evenodd" d="M27.4899 1.64453C41.7627 1.64453 53.3555 13.2171 53.3555 27.5102C53.3555 41.783 41.783 53.3758 27.4899 53.3758C13.1968 53.3758 1.64453 41.783 1.64453 27.4899C1.64453 13.2171 13.2171 1.64453 27.4899 1.64453Z" fill="#0065C9"/>
<path d="M13.3592 7.97896C12.5065 8.58804 12.2425 9.42045 12.7704 10.1514C13.1764 10.7401 13.8058 10.801 14.3134 10.6792L15.2879 10.4762C15.7143 10.395 15.897 10.395 16.0594 10.598C16.2422 10.8416 16.1406 11.1259 15.7549 11.3898C15.4707 11.5928 15.227 11.6538 15.024 11.6944C14.7804 11.7553 14.6992 11.7756 14.5773 11.8568C14.354 12.0192 14.2931 12.3034 14.4758 12.5674C14.5976 12.7501 14.7804 12.811 15.024 12.7704C15.4504 12.7095 15.897 12.5065 16.3234 12.2019C17.1964 11.5928 17.44 10.6792 16.9121 9.94833C16.4249 9.25803 15.7752 9.29864 15.2676 9.42046L14.354 9.62348C13.948 9.70469 13.7652 9.70469 13.6434 9.52197C13.4404 9.23773 13.7043 8.9738 13.887 8.83168C14.151 8.64895 14.3337 8.58804 14.5976 8.52714C14.7804 8.48653 14.9022 8.46623 15.024 8.36472C15.2473 8.20229 15.2879 7.91806 15.1255 7.69473C15.0037 7.512 14.8413 7.45109 14.5976 7.4714C14.1916 7.512 13.8058 7.67442 13.3592 7.97896ZM20.1403 8.85198L19.7545 7.85715L21.196 7.28867C21.4803 7.16686 21.6021 6.90292 21.4803 6.61868C21.3787 6.35475 21.0945 6.21263 20.8103 6.33445L19.3891 6.90292L19.0642 6.09081L20.5869 5.48173C20.8712 5.35992 20.993 5.09598 20.8712 4.81174C20.7697 4.54781 20.4854 4.40569 20.2012 4.52751L18.2724 5.29901C17.9476 5.42082 17.7852 5.76597 17.907 6.09081L19.3079 9.64378C19.4297 9.96863 19.7951 10.0904 20.0997 9.96863L22.0893 9.17682C22.3736 9.05501 22.4954 8.79107 22.3736 8.50683C22.2721 8.2429 21.9878 8.10078 21.7036 8.2226L20.1403 8.85198ZM26.0484 6.84201L24.8911 3.89812C24.8099 3.67479 24.6069 3.55298 24.3429 3.57328C24.0587 3.59358 23.8354 3.83721 23.8557 4.10115C23.8557 4.22297 23.9166 4.30418 23.9369 4.36508L25.4393 8.08048C25.6017 8.46623 25.8453 8.62865 26.1905 8.58804C26.5356 8.54744 26.7386 8.36472 26.8402 7.95866L27.7741 4.06054C27.7944 3.97933 27.8147 3.89812 27.8147 3.77631C27.7944 3.51237 27.5305 3.30934 27.2462 3.32965C26.9823 3.34995 26.7996 3.49207 26.759 3.7357L26.0484 6.84201ZM32.9513 4.40569C32.9107 4.16206 32.7279 3.97933 32.5046 3.91843C32.2813 3.85752 32.0377 3.93873 31.8955 4.16206L29.5404 7.81654C29.4998 7.87745 29.4795 7.95866 29.4592 7.99927C29.3983 8.2835 29.5607 8.52714 29.8653 8.60835C30.0683 8.64895 30.3119 8.58804 30.4337 8.38502L30.7992 7.75563L32.3422 8.12108L32.4031 8.85198C32.4234 9.07531 32.6061 9.23773 32.8092 9.29864C33.1137 9.35955 33.3776 9.21743 33.4385 8.93319C33.4588 8.89259 33.4588 8.81137 33.4588 8.73016L32.9513 4.40569ZM32.261 7.10595L31.3271 6.88262L32.1189 5.54264L32.261 7.10595ZM40.4836 7.16686C40.2196 7.02474 39.9151 7.08565 39.7527 7.36988L38.6157 9.33924L38.4533 6.35475C38.433 6.11112 38.3518 5.92839 38.1691 5.82688C37.9051 5.68476 37.5803 5.76597 37.4382 6.02991L35.4079 9.56257C35.2455 9.82651 35.347 10.1514 35.6109 10.2935C35.8749 10.4356 36.1794 10.3747 36.3418 10.0904L37.4788 8.12108L37.6412 11.1056C37.6615 11.3695 37.7427 11.5319 37.9254 11.6334C38.1894 11.7756 38.5142 11.6944 38.6563 11.4304L40.6866 7.89775C40.8287 7.61352 40.7272 7.30897 40.4836 7.16686Z" fill="white"/>
<path fill-rule="evenodd" clip-rule="evenodd" d="M27.4899 10.0093C37.1337 10.0093 44.9705 17.8258 44.9705 27.4899C44.9705 37.154 37.154 44.9705 27.4899 44.9705C17.8258 44.9705 10.0093 37.154 10.0093 27.4899C10.0093 17.8258 17.8461 10.0093 27.4899 10.0093Z" fill="#FCE625"/>
<path fill-rule="evenodd" clip-rule="evenodd" d="M27.4898 10.9431C36.6261 10.9431 44.0569 18.3536 44.0569 27.5101C44.0569 36.6463 36.6464 44.0771 27.4898 44.0771C18.3536 44.0771 10.9229 36.6666 10.9229 27.5101C10.9432 18.3536 18.3536 10.9431 27.4898 10.9431Z" fill="#0065C9"/>
<path d="M31.327 30.6977C31.2052 30.9007 30.7991 31.5707 29.9058 31.9361C29.3779 32.1392 28.8501 32.2407 28.4643 32.2813C28.2613 32.3016 27.9771 32.2813 28.3425 31.9768C29.1749 31.2662 29.317 30.8195 29.3983 29.6622C29.4592 28.8704 29.0328 27.1041 28.9313 26.6777C28.911 26.6168 28.9313 26.5965 28.9922 26.6371C29.3983 26.8605 31.124 27.9771 31.3676 30.5759C31.3473 30.5759 31.3473 30.6571 31.327 30.6977ZM26.6777 17.6431V17.6634C26.6777 17.7446 26.6574 17.8055 26.6371 17.8664C26.5356 18.1709 26.2513 18.3943 25.9062 18.3943C25.4798 18.3943 25.1347 18.0491 25.1347 17.6228C25.1347 17.1964 25.4798 16.8512 25.9062 16.8512C26.3325 16.8512 26.6777 17.1964 26.6777 17.6228V17.6431ZM30.9616 25.216C34.4942 22.9014 35.55 18.7394 35.6718 16.7497C35.6921 16.5264 35.6718 16.1 34.9815 15.6534C32.8294 14.2931 30.2713 13.5216 27.5507 13.5216C26.1092 13.5216 24.7286 13.7246 23.4293 14.151C23.1653 14.2322 22.9826 14.618 22.942 14.7398C22.5156 15.8564 22.2111 17.6634 22.6984 19.3079C23.3684 21.5209 24.6068 22.8202 25.9671 23.7542C26.1295 23.876 26.2513 23.8963 26.3731 23.9166C26.4138 23.9166 26.4544 23.9166 26.4747 23.9166C28.2004 23.8557 29.6013 22.4345 29.6013 20.6885C29.6013 20.5869 29.6013 20.4651 29.581 20.3636C29.5607 20.0794 29.7231 20.0388 29.8246 20.323C29.9667 20.6885 30.0479 21.0945 30.0479 21.5209C30.0479 23.0233 28.9922 24.282 27.6116 24.6475C27.5507 24.6678 27.4695 24.7287 27.6116 24.8099C28.5455 25.3581 29.4389 25.8453 30.1088 26.4747C30.1088 26.4747 30.1088 26.495 30.1291 26.495C31.4285 27.7538 32.2812 29.6622 32.1594 31.3068C32.1594 31.4083 32.1391 31.5301 32.1188 31.6316C32.0985 31.7331 32.2 31.7331 32.2 31.7331H32.8497C32.9106 31.7331 32.9715 31.6925 33.0121 31.6519L35.3266 27.632C35.3672 27.5711 35.3672 27.5102 35.3266 27.4493L33.4791 24.2211C33.4588 24.1805 33.4182 24.1602 33.3573 24.2008C32.6264 24.7896 31.7128 25.216 31.1646 25.3378C30.9413 25.3784 30.7991 25.3175 30.9616 25.216ZM20.4042 15.9376C20.4245 15.7752 20.262 15.6534 20.1199 15.7346C15.9579 18.2115 13.2576 22.8405 13.5215 27.9974C13.5418 28.4035 13.5825 28.7892 13.6231 29.175C13.6434 29.3171 13.7855 29.378 13.9073 29.3171C14.0494 29.2359 14.2727 29.1141 14.557 29.0126C14.6382 28.972 14.6991 28.8907 14.6788 28.8095C14.1306 25.5814 15.633 22.3939 16.8918 21.3787C17.0136 21.2772 17.1151 21.3381 17.0542 21.46C16.3842 22.5563 15.227 24.7896 15.6939 28.505C15.7142 28.6065 15.8157 28.6877 15.9173 28.6674C16.0594 28.6471 16.2015 28.6268 16.3436 28.6065C16.4248 28.6065 16.506 28.5253 16.506 28.4441C16.77 25.6017 18.1912 23.8354 19.1454 23.0842C19.2875 22.9624 19.4702 22.9421 19.2875 23.2466C18.6987 24.2211 17.4197 26.495 17.5212 28.4441C17.5212 28.5253 17.6024 28.6065 17.6836 28.6268C17.8663 28.6471 18.049 28.6877 18.2318 28.7283C18.3333 28.7486 18.4348 28.6877 18.4551 28.5862C18.7799 27.3071 19.9778 25.5611 20.8711 25.2972C20.9929 25.2566 20.9929 25.3784 20.8305 25.5611C20.2417 26.1702 19.6733 27.6726 19.4093 28.9923C19.389 29.0735 19.4296 29.1547 19.5108 29.1953C19.6733 29.2765 19.8357 29.378 20.0184 29.4795C20.1199 29.5404 20.262 29.4998 20.3026 29.3983C20.526 28.7689 21.3381 27.0026 23.3277 26.3529C23.4699 26.3123 23.5105 26.1499 23.409 26.0484C22.5156 25.155 19.5311 21.5615 20.4042 15.9376ZM36.3215 37.4179C36.2606 37.4179 36.1997 37.4585 36.159 37.4991L35.1439 39.2654C35.8545 38.7985 36.5245 38.2909 37.1336 37.7224C37.2554 37.6209 37.1742 37.4179 37.0118 37.4179H36.3215ZM32.8497 32.7076H31.997C31.9158 32.7076 31.8549 32.7483 31.8346 32.8295C31.0022 35.144 28.7283 36.8697 26.0077 36.8291C25.9265 36.8291 25.8453 36.8088 25.7438 36.8088L25.7032 36.89L28.0786 40.9911C28.1192 41.052 28.1598 41.0724 28.241 41.0724H30.921C30.9413 41.0724 30.9616 41.0724 30.9616 41.0724C31.8346 40.849 32.667 40.5648 33.4588 40.1993C33.4994 40.179 33.5197 40.1587 33.54 40.1181L35.3469 36.9712C35.3875 36.9103 35.3875 36.8494 35.3469 36.7885L33.0324 32.7686C32.9715 32.7483 32.9106 32.7076 32.8497 32.7076ZM19.9778 37.4991L19.3281 38.6157C19.2875 38.6969 19.3078 38.7985 19.3687 38.8594C21.5005 40.4024 24.0789 41.3566 26.8807 41.4784C27.0228 41.4784 27.104 41.3363 27.0431 41.2145L24.8911 37.4991C24.8504 37.4382 24.8098 37.4179 24.7286 37.4179H20.1199C20.059 37.4179 19.9981 37.4382 19.9778 37.4991ZM20.1199 36.4027H23.1653C23.348 36.4027 23.409 36.1591 23.2465 36.0779C21.399 35.0425 19.9778 33.1137 19.9778 30.8398C19.9778 30.8195 19.9778 30.7992 19.9778 30.7789C19.653 30.4947 19.3281 30.2713 19.0236 30.1089C18.9424 30.0683 18.8409 30.0886 18.7799 30.1698L17.643 32.1392C17.6024 32.2001 17.6024 32.261 17.643 32.3219L19.9575 36.3418C19.9981 36.3621 20.059 36.4027 20.1199 36.4027ZM17.7039 29.6216C15.9173 29.3374 14.4149 30.3119 14.0291 30.5962C13.9682 30.6368 13.9479 30.718 13.9682 30.7789C14.0291 31.0428 14.1103 31.3068 14.1915 31.5707C14.2118 31.6519 14.293 31.6925 14.354 31.6925H16.6685C16.7294 31.6925 16.7903 31.6519 16.8309 31.6113L17.8257 29.8856C17.8866 29.7841 17.8054 29.6419 17.7039 29.6216ZM16.6685 32.7076H14.8412C14.7194 32.7076 14.6179 32.8295 14.6788 32.9513C15.5112 34.9003 16.7497 36.6058 18.313 37.9863C18.3942 38.0676 18.5363 38.0473 18.5972 37.9457L19.1454 36.9915C19.186 36.9306 19.186 36.8697 19.1454 36.8088L16.8309 32.7889C16.7903 32.7483 16.7294 32.7076 16.6685 32.7076ZM36.159 28.0989L33.8445 32.1189C33.8039 32.1798 33.8039 32.2407 33.8445 32.3016L36.159 36.3215C36.1997 36.3824 36.2403 36.4027 36.3215 36.4027H38.2908C38.3517 36.4027 38.3923 36.3824 38.433 36.3418C40.1181 34.2507 41.2347 31.6925 41.4987 28.8704C41.4987 28.8298 41.4987 28.7892 41.4784 28.7689L41.1129 28.1395C41.0723 28.0786 41.0317 28.0583 40.9505 28.0583H36.3215C36.2606 28.0177 36.1997 28.0583 36.159 28.0989ZM38.4939 18.8003C38.4939 18.8003 37.7427 17.907 37.4381 17.6024C37.4178 17.5821 37.3772 17.5415 37.3569 17.5212C36.7275 16.9528 36.7275 17.2979 36.6869 17.4806C36.6869 17.5212 36.6666 17.5618 36.6666 17.6024C36.626 17.8055 36.6057 18.0288 36.5651 18.2521C36.5448 18.3536 36.4839 18.6379 36.4636 18.8003C36.0575 20.7291 35.1845 22.1909 34.21 23.2872C34.1694 23.3481 34.1491 23.4293 34.1897 23.4902L36.159 26.9011C36.1997 26.962 36.2403 26.9823 36.3215 26.9823H40.9505C41.0114 26.9823 41.0723 26.9417 41.1129 26.9011L41.4784 26.2717C41.4987 26.2311 41.4987 26.2108 41.4987 26.1702C41.2347 23.3887 40.1587 20.8509 38.4939 18.8003Z" fill="white"/>
<path d="M4.16207 28.0786V27.6523H4.77115C4.89297 27.6523 4.97418 27.5711 4.97418 27.4493C4.97418 27.3274 4.89297 27.2462 4.77115 27.2462H4.16207V26.9011H4.81176C4.93358 26.9011 5.01479 26.8199 5.01479 26.6981C5.01479 26.5762 4.93358 26.495 4.81176 26.495H3.97935C3.83723 26.495 3.73572 26.5965 3.73572 26.7387V28.2411C3.73572 28.3832 3.83723 28.4847 3.97935 28.4847H4.83206C4.95388 28.4847 5.03509 28.4035 5.03509 28.2817C5.03509 28.1599 4.95388 28.0786 4.83206 28.0786H4.16207ZM5.92841 26.4747C5.52235 26.4747 5.23812 26.6778 5.23812 27.0432C5.23812 27.3274 5.42084 27.4899 5.62387 27.5711L5.98932 27.7335C6.15174 27.7944 6.21265 27.8553 6.21265 27.9568C6.21265 28.0786 6.11113 28.1396 5.92841 28.1396C5.78629 28.1396 5.70508 28.099 5.62387 28.0786C5.54266 28.038 5.50205 28.0177 5.44114 28.0177C5.31933 28.0177 5.23812 28.0989 5.23812 28.2208C5.23812 28.302 5.27872 28.3629 5.35993 28.4035C5.50205 28.4847 5.70508 28.5253 5.90811 28.5253C6.33446 28.5253 6.6187 28.2817 6.6187 27.9365C6.6187 27.5914 6.39537 27.4696 6.21265 27.3884L5.8675 27.2462C5.70508 27.1853 5.66447 27.1447 5.66447 27.0432C5.66447 26.9011 5.80659 26.8808 5.90811 26.8808C6.02992 26.8808 6.11113 26.9011 6.21265 26.9417C6.27355 26.962 6.31416 26.9823 6.39537 26.9823C6.49688 26.9823 6.57809 26.9011 6.57809 26.7996C6.57809 26.7184 6.53749 26.6575 6.45628 26.6169C6.31416 26.5153 6.15174 26.4747 5.92841 26.4747ZM6.94354 26.495C6.82173 26.495 6.74052 26.5762 6.74052 26.6981C6.74052 26.8199 6.82173 26.9011 6.94354 26.9011H7.30899V28.302C7.30899 28.4238 7.4105 28.505 7.51202 28.505C7.61353 28.505 7.71504 28.4238 7.71504 28.302V26.9011H8.08049C8.20231 26.9011 8.28352 26.8199 8.28352 26.6981C8.28352 26.5965 8.20231 26.495 8.08049 26.495H6.94354Z" fill="white"/>
<path d="M46.8993 26.4747C46.6556 26.4747 46.5135 26.5356 46.412 26.5965C46.3511 26.6372 46.3105 26.6981 46.3105 26.759C46.3105 26.8605 46.3917 26.9417 46.4932 26.9417C46.5135 26.9417 46.5338 26.9417 46.5541 26.9214C46.676 26.8808 46.7572 26.8402 46.8993 26.8402C47.0414 26.8402 47.1429 26.9214 47.1429 27.0635C47.1429 27.165 47.082 27.2462 47.0008 27.3274L46.3308 28.0989C46.2902 28.1396 46.2699 28.1802 46.2699 28.2411C46.2699 28.3629 46.3714 28.4644 46.4932 28.4644H47.3662C47.4881 28.4644 47.5693 28.3832 47.5693 28.2614C47.5693 28.1599 47.4881 28.0583 47.3662 28.0583H46.8993L47.3662 27.5305C47.5084 27.3681 47.5896 27.2259 47.5896 27.0229C47.5693 26.6981 47.3053 26.4747 46.8993 26.4747ZM48.6047 26.4747C48.1784 26.4747 47.9347 26.7387 47.9347 27.1447V27.835C47.9347 28.2614 48.219 28.505 48.6047 28.505C49.0311 28.505 49.2747 28.2411 49.2747 27.835V27.1447C49.2747 26.7184 49.0108 26.4747 48.6047 26.4747ZM48.6047 26.8605C48.7874 26.8605 48.8686 26.9417 48.8686 27.1244V27.8756C48.8686 28.0583 48.7874 28.1599 48.6047 28.1599C48.422 28.1599 48.3408 28.0786 48.3408 27.8756V27.1244C48.3205 26.9417 48.422 26.8605 48.6047 26.8605ZM50.1883 26.4747C50.1477 26.4747 50.1071 26.495 50.0868 26.5153L49.6401 26.7793C49.5589 26.8199 49.5386 26.8808 49.5386 26.9417C49.5386 27.0432 49.6198 27.1244 49.7417 27.1244C49.7823 27.1244 49.8229 27.1041 49.8635 27.0838L50.0259 27.0026V28.3223C50.0259 28.4441 50.1071 28.5253 50.2289 28.5253C50.3507 28.5253 50.432 28.4441 50.432 28.3223V26.6981C50.4116 26.5559 50.3101 26.4747 50.1883 26.4747ZM51.4877 26.4747C51.1019 26.4747 50.8583 26.6981 50.8583 27.0635C50.8583 27.2056 50.9192 27.3477 51.041 27.4493C50.8989 27.5508 50.8177 27.7132 50.8177 27.8959C50.8177 28.2817 51.0816 28.5253 51.508 28.5253C51.914 28.5253 52.1983 28.2817 52.1983 27.8959C52.1983 27.7132 52.1171 27.5508 51.975 27.4493C52.0968 27.3477 52.1577 27.2056 52.1577 27.0635C52.1374 26.6981 51.8734 26.4747 51.4877 26.4747ZM51.4877 27.6523C51.6501 27.6523 51.7516 27.7335 51.7516 27.8959C51.7516 28.0583 51.6501 28.1396 51.4877 28.1396C51.3253 28.1396 51.2238 28.0583 51.2238 27.8959C51.2238 27.7335 51.3253 27.6523 51.4877 27.6523ZM51.4877 26.8605C51.6298 26.8605 51.711 26.9417 51.711 27.0635C51.711 27.1853 51.6298 27.2665 51.4877 27.2665C51.3456 27.2665 51.2644 27.1853 51.2644 27.0635C51.2644 26.9214 51.3456 26.8605 51.4877 26.8605Z" fill="white"/>
<path d="M13.4201 41.6408C13.2577 41.4986 13.0141 41.4986 12.8719 41.6408L11.1665 43.4274C11.0244 43.5695 11.0447 43.7725 11.1665 43.8944C11.3086 44.0365 11.4913 44.0365 11.6335 43.8741L12.3238 43.1432L13.014 43.7929C13.1562 43.935 13.3389 43.9147 13.4607 43.7726C13.5825 43.6507 13.5825 43.4477 13.4404 43.3259L12.7501 42.6762L13.1359 42.2702L13.8668 42.9604C14.0089 43.1026 14.1916 43.0823 14.3134 42.9401C14.4352 42.8183 14.4352 42.6153 14.2931 42.4935L13.4201 41.6408ZM15.8361 43.6304C15.2473 43.2244 14.618 43.2853 14.1713 43.8944L13.6637 44.605C13.2171 45.214 13.3795 45.8434 13.948 46.2698C14.5368 46.6758 15.1661 46.6149 15.6128 46.0058L16.1204 45.2953C16.567 44.6659 16.4046 44.0568 15.8361 43.6304ZM15.4707 44.138C15.7346 44.3207 15.7955 44.605 15.5925 44.8689L15.0443 45.6404C14.8616 45.9043 14.5774 45.9449 14.3134 45.7622C14.0495 45.5795 13.9886 45.2953 14.1916 45.0313L14.7398 44.2598C14.9428 43.9959 15.2067 43.9553 15.4707 44.138ZM18.2521 45.1328C17.6228 44.808 16.9934 44.9704 16.6482 45.6404L16.2625 46.4119C15.9173 47.0819 16.161 47.691 16.7904 48.0158C17.4197 48.3407 18.0491 48.1782 18.3943 47.5082L18.78 46.7367C19.1252 46.0464 18.8815 45.4577 18.2521 45.1328ZM17.9679 45.681C18.2521 45.8231 18.3537 46.0871 18.1912 46.3916L17.7649 47.2443C17.6228 47.5285 17.3588 47.6098 17.0543 47.4676C16.77 47.3255 16.6685 47.0616 16.831 46.757L17.2573 45.9043C17.4197 45.6201 17.6837 45.5389 17.9679 45.681ZM19.8561 45.9449C19.6733 45.884 19.5109 45.9652 19.45 46.1277C19.3891 46.2901 19.45 46.4728 19.6327 46.554L20.1606 46.757L19.3485 48.8076C19.2673 48.9903 19.3688 49.1731 19.5312 49.234C19.6936 49.2949 19.8967 49.234 19.9576 49.0512L20.7697 47.0007L21.2976 47.2037C21.46 47.2646 21.6427 47.1834 21.7036 47.021C21.7645 46.8586 21.7036 46.6758 21.5209 46.6149L19.8561 45.9449ZM22.5563 46.8383C22.3533 46.7976 22.1503 46.8992 22.0894 47.1225L21.5615 49.437C21.5209 49.64 21.6427 49.8431 21.8457 49.8837L22.5563 50.0461C23.2466 50.2085 23.6933 49.9446 23.8151 49.3761C23.876 49.1122 23.8151 48.8279 23.6324 48.6249C23.8151 48.5031 23.9572 48.361 24.0181 48.1173C24.1399 47.5488 23.8557 47.1631 23.2263 47.021L22.5563 46.8383ZM22.6984 47.5082L23.1045 47.6098C23.3075 47.6504 23.4293 47.7925 23.3684 47.9752C23.3278 48.1782 23.1654 48.2391 22.9624 48.1782L22.5563 48.0767L22.6984 47.5082ZM22.2721 49.3558L22.4345 48.6858L22.8609 48.7873C23.1045 48.8482 23.2263 48.9903 23.1857 49.2137C23.1451 49.437 22.9421 49.5182 22.6984 49.4573L22.2721 49.3558ZM26.1905 47.5895C26.1499 47.4473 26.0078 47.3458 25.8657 47.3255C25.7235 47.3052 25.5814 47.3864 25.5002 47.5285L24.4039 50.0055C24.3836 50.0461 24.3836 50.107 24.3633 50.1273C24.343 50.31 24.4851 50.4521 24.6678 50.4724C24.8099 50.4927 24.9317 50.4115 24.9926 50.2897L25.1551 49.8634L26.1499 49.9446L26.2514 50.3912C26.292 50.5333 26.4138 50.6146 26.5559 50.6146C26.7387 50.6349 26.9011 50.513 26.9011 50.3303C26.9011 50.2897 26.9011 50.2491 26.8808 50.2085L26.1905 47.5895ZM26.0281 49.3355L25.4393 49.2949L25.8047 48.3813L26.0281 49.3355ZM28.0177 47.4067C27.835 47.4067 27.6929 47.5488 27.6929 47.7519L27.7538 50.2085C27.7538 50.4115 27.9365 50.5739 28.1599 50.5739L29.4998 50.5333C29.6826 50.5333 29.8247 50.3912 29.8044 50.2085C29.8044 50.0258 29.6623 49.904 29.4795 49.904L28.4238 49.9243L28.3629 47.7316C28.3426 47.5285 28.2005 47.3864 28.0177 47.4067ZM30.4135 47.2037C30.2307 47.2443 30.1089 47.4067 30.1495 47.5895L30.5759 50.0258C30.6165 50.2288 30.8195 50.3709 31.0225 50.3303L32.3422 50.0867C32.5249 50.0461 32.6265 49.904 32.6062 49.7212C32.5655 49.5385 32.4234 49.437 32.2407 49.4573L31.2053 49.64L30.8195 47.4676C30.7586 47.2849 30.5962 47.1631 30.4135 47.2037ZM34.4334 46.1683C33.7634 46.4322 33.4792 47.0007 33.7431 47.7113L34.0679 48.5234C34.3319 49.2137 34.941 49.437 35.611 49.1731C35.8546 49.0715 36.1185 48.9294 36.2809 48.6858C36.3418 48.5843 36.3622 48.4828 36.3215 48.3813C36.2606 48.2188 36.0576 48.1579 35.9155 48.2188C35.8546 48.2391 35.7937 48.2797 35.7125 48.3813C35.6313 48.4828 35.5094 48.564 35.3673 48.6046C35.0628 48.7264 34.7988 48.6249 34.677 48.3204L34.3319 47.427C34.2101 47.1225 34.3319 46.8789 34.6364 46.757C34.7988 46.6961 34.9207 46.6758 35.0831 46.6961C35.144 46.6961 35.2049 46.6961 35.2861 46.6758C35.4485 46.6149 35.5297 46.4322 35.4688 46.2698C35.4282 46.148 35.3267 46.0871 35.144 46.0668C34.941 46.0261 34.7176 46.0668 34.4334 46.1683ZM36.1591 45.4374C35.9967 45.5186 35.9155 45.7216 36.017 45.884L37.1337 48.0767C37.2352 48.2594 37.4585 48.3407 37.6412 48.2391L38.8391 47.6301C39.0015 47.5488 39.0624 47.3661 38.9812 47.2037C38.9 47.0413 38.7173 46.9804 38.5548 47.0616L37.6209 47.5488L36.6261 45.5795C36.5246 45.3968 36.3215 45.3562 36.1591 45.4374ZM39.5497 43.3462C39.4076 43.4477 39.3669 43.6507 39.4685 43.8132L40.4633 45.214C40.6663 45.5186 40.646 45.7825 40.3415 45.9855C40.0572 46.1886 39.7933 46.148 39.57 45.8434L38.5751 44.4425C38.4533 44.2801 38.2503 44.2598 38.1082 44.3613C37.9661 44.4628 37.9052 44.6659 38.027 44.8283L39.0015 46.2089C39.4482 46.8586 40.0166 46.9601 40.6866 46.4931C41.316 46.0464 41.4378 45.4577 40.9709 44.808L39.9963 43.4274C39.9151 43.265 39.6918 43.2447 39.5497 43.3462ZM40.5851 42.5747C40.4227 42.7168 40.4227 42.9604 40.5648 43.1229L42.2093 44.8486C42.3514 45.011 42.5951 44.9907 42.7575 44.8486L43.2854 44.341C43.7929 43.8538 43.8335 43.3462 43.4072 42.9198C43.2245 42.7168 42.9402 42.6153 42.6763 42.6559C42.6763 42.4326 42.6357 42.2295 42.453 42.0468C42.0469 41.6205 41.5596 41.6611 41.0927 42.1077L40.5851 42.5747ZM41.2145 42.8386L41.519 42.5544C41.6612 42.4123 41.8439 42.392 41.9657 42.5341C42.1078 42.6762 42.0672 42.8386 41.9251 42.9807L41.6206 43.265L41.2145 42.8386ZM42.5342 44.1989L42.0469 43.6913L42.3717 43.3868C42.5545 43.2244 42.7575 43.1838 42.8996 43.3462C43.062 43.5086 43.0214 43.7116 42.8387 43.8741L42.5342 44.1989Z" fill="white"/>
</svg>
