<svg width="55" height="55" viewBox="0 0 55 55" fill="none" xmlns="http://www.w3.org/2000/svg">
<path fill-rule="evenodd" clip-rule="evenodd" d="M27.4898 0C12.3034 0 0 12.3034 0 27.4898C0 42.6763 12.3034 54.9797 27.4898 54.9797C42.6763 54.9797 54.9797 42.6763 54.9797 27.4898C55 12.3034 42.6763 0 27.4898 0ZM27.4898 53.3555C13.2171 53.3555 1.62422 41.7829 1.62422 27.4898C1.62422 13.2171 13.1968 1.62422 27.4898 1.62422C41.7626 1.62422 53.3555 13.1968 53.3555 27.4898C53.3555 41.7829 41.7829 53.3555 27.4898 53.3555Z" fill="white"/>
<path d="M40.4836 7.16686C40.2196 7.02474 39.9151 7.08565 39.7527 7.36988L38.6157 9.33925L38.4533 6.35475C38.433 6.11112 38.3518 5.92839 38.1691 5.82688C37.9051 5.68476 37.5803 5.76597 37.4382 6.02991L35.4079 9.56257C35.2455 9.82651 35.347 10.1514 35.6109 10.2935C35.8749 10.4356 36.1794 10.3747 36.3418 10.0904L37.4788 8.12108L37.6412 11.1056C37.6615 11.3695 37.7427 11.5319 37.9254 11.6334C38.1894 11.7756 38.5142 11.6944 38.6563 11.4304L40.6866 7.89775C40.8287 7.61352 40.7272 7.30898 40.4836 7.16686ZM32.261 7.10595L31.3271 6.88262L32.1189 5.54264L32.261 7.10595ZM32.9513 4.40569C32.931 4.16206 32.7279 3.97933 32.5046 3.91843C32.2813 3.85752 32.0377 3.93873 31.8955 4.16206L29.5404 7.81654C29.4998 7.87745 29.4795 7.95866 29.4592 7.99927C29.3983 8.28351 29.5607 8.52714 29.8653 8.60835C30.0683 8.64895 30.3119 8.58805 30.4337 8.38502L30.7992 7.75564L32.3422 8.12108L32.4031 8.85198C32.4234 9.07531 32.6061 9.23773 32.8092 9.29864C33.1137 9.35955 33.3776 9.21743 33.4385 8.93319C33.4588 8.89259 33.4588 8.81138 33.4588 8.73016L32.9513 4.40569ZM26.0484 6.84201L24.8911 3.89812C24.8099 3.67479 24.6069 3.55298 24.3429 3.57328C24.0587 3.59358 23.8354 3.83721 23.8557 4.10115C23.8557 4.22297 23.9166 4.30418 23.9369 4.36508L25.4393 8.08048C25.6017 8.46623 25.8453 8.62865 26.1905 8.58805C26.5153 8.56774 26.7386 8.36472 26.8402 7.95866L27.7741 4.06054C27.7944 3.97933 27.8147 3.89812 27.8147 3.77631C27.7944 3.51237 27.5305 3.30934 27.2462 3.32965C26.9823 3.34995 26.7996 3.49207 26.759 3.7357L26.0484 6.84201ZM20.1403 8.85198L19.7545 7.85715L21.196 7.28867C21.4803 7.16686 21.6021 6.90292 21.4803 6.61868C21.3787 6.35475 21.0945 6.21263 20.8103 6.33445L19.3891 6.90292L19.0642 6.09081L20.5869 5.48173C20.8712 5.35992 20.993 5.09598 20.8712 4.81174C20.7697 4.54781 20.4854 4.40569 20.2012 4.52751L18.2724 5.29901C17.9476 5.42082 17.7852 5.76597 17.907 6.09081L19.3079 9.64379C19.4297 9.96863 19.7951 10.0904 20.0997 9.96863L22.0893 9.17682C22.3736 9.05501 22.4954 8.79107 22.3736 8.50683C22.2721 8.2429 21.9878 8.10078 21.7036 8.2226L20.1403 8.85198ZM13.3592 7.97896C12.5065 8.58805 12.2425 9.42046 12.7704 10.1514C13.1764 10.7401 13.8058 10.801 14.3134 10.6792L15.2879 10.4762C15.7143 10.395 15.897 10.395 16.0594 10.598C16.2422 10.8416 16.1406 11.1259 15.7549 11.3898C15.4707 11.5928 15.227 11.6538 15.024 11.6944C14.7804 11.7553 14.6992 11.7756 14.5773 11.8568C14.354 12.0192 14.2931 12.3034 14.4758 12.5674C14.5976 12.7501 14.7804 12.811 15.024 12.7704C15.4504 12.7095 15.897 12.5065 16.3234 12.2019C17.1964 11.5928 17.44 10.6792 16.9121 9.94833C16.4046 9.25803 15.7752 9.29864 15.2676 9.42046L14.354 9.62348C13.948 9.70469 13.7652 9.70469 13.6434 9.52197C13.4404 9.23773 13.7043 8.9738 13.887 8.83168C14.151 8.64895 14.3337 8.58805 14.5976 8.52714C14.7804 8.48653 14.9022 8.46623 15.024 8.36472C15.2473 8.20229 15.2879 7.91806 15.1255 7.69473C15.0037 7.512 14.8413 7.45109 14.5976 7.4714C14.1916 7.512 13.8058 7.67442 13.3592 7.97896Z" fill="white"/>
<path fill-rule="evenodd" clip-rule="evenodd" d="M25.8453 18.0897C26.2108 18.0897 26.495 17.8664 26.6168 17.5415C26.6371 17.4806 26.6574 17.3994 26.6574 17.3385V17.3182V17.2979C26.6574 16.8512 26.292 16.4858 25.8453 16.4858C25.3987 16.4858 25.0332 16.8512 25.0332 17.2979C25.0332 17.7242 25.3987 18.0897 25.8453 18.0897Z" fill="white"/>
<path fill-rule="evenodd" clip-rule="evenodd" d="M27.4898 10.9431C18.3536 10.9431 10.9229 18.3536 10.9229 27.5101C10.9229 36.6666 18.3536 44.0568 27.4898 44.0568C36.6464 44.0568 44.0569 36.6463 44.0569 27.4898C44.0569 18.3333 36.6464 10.9431 27.4898 10.9431ZM36.89 17.9272C36.9306 17.7039 36.9712 17.4603 36.9915 17.2573C36.9915 17.2166 37.0118 17.176 37.0118 17.1354C37.0321 16.9527 37.0321 16.567 37.7021 17.176C37.7427 17.1963 37.763 17.237 37.7833 17.2573C38.1082 17.5618 38.8797 18.4957 38.8797 18.4957C40.5851 20.6275 41.7017 23.2669 41.9657 26.1295C41.9657 26.1701 41.9657 26.2107 41.9454 26.2513L41.5596 26.901C41.519 26.9619 41.4581 27.0025 41.3972 27.0025H36.6058C36.5449 27.0025 36.4839 26.9619 36.4433 26.901L34.4131 23.3684C34.3725 23.3075 34.3725 23.2262 34.4334 23.1653C35.4282 22.0284 36.3418 20.5057 36.7682 18.516C36.8088 18.3333 36.8697 18.0491 36.89 17.9272ZM22.7796 14.2728C22.8202 14.1712 23.0233 13.7652 23.2872 13.6637C24.6272 13.2373 26.0687 13.014 27.5711 13.014C30.3931 13.014 33.0325 13.8261 35.2658 15.227C35.9967 15.6736 35.9967 16.1203 35.9967 16.3639C35.8749 18.4348 34.7785 22.7187 31.124 25.1347C30.9413 25.2565 31.1037 25.2971 31.3068 25.2565C31.8752 25.1144 32.8295 24.6677 33.5807 24.079C33.6213 24.0384 33.6822 24.0587 33.7025 24.0993L35.6312 27.4289C35.6718 27.4898 35.6718 27.5507 35.6312 27.6116L33.2355 31.7737C33.1949 31.8346 33.134 31.8752 33.0731 31.8752H32.4031C32.4031 31.8752 32.3016 31.8955 32.3219 31.7737C32.3422 31.6519 32.3422 31.5504 32.3625 31.4285C32.464 29.7434 31.6113 27.7537 30.251 26.4544C30.251 26.4544 30.251 26.4341 30.2307 26.4341C29.5404 25.7641 28.6065 25.2565 27.6523 24.7083C27.5102 24.6271 27.5711 24.5662 27.6523 24.5459C29.0938 24.1602 30.1698 22.8608 30.1698 21.3178C30.1698 20.8711 30.0886 20.4651 29.9262 20.0793C29.8044 19.7951 29.6419 19.8154 29.6622 20.1199C29.6825 20.2418 29.6825 20.3433 29.6825 20.4651C29.6825 22.272 28.2411 23.7541 26.4544 23.815C26.4138 23.815 26.3732 23.815 26.3529 23.815C26.2108 23.815 26.089 23.7744 25.9265 23.6526C24.5257 22.6781 23.2466 21.3381 22.5563 19.0439C22.0081 17.2979 22.333 15.43 22.7796 14.2728ZM28.9516 26.6371C28.9313 26.5762 28.9516 26.5559 29.0126 26.5965C29.4389 26.8401 31.2255 27.9771 31.4895 30.6773C31.4895 30.6976 31.4895 30.7992 31.4692 30.8398C31.3474 31.0631 30.921 31.7534 29.9871 32.1188C29.4389 32.3422 28.8907 32.4234 28.505 32.464C28.302 32.4843 27.9974 32.464 28.3629 32.1391C29.2359 31.4082 29.378 30.9413 29.4592 29.7434C29.4998 28.8907 29.0735 27.0635 28.9516 26.6371ZM13.1358 29.2561C13.0749 28.8501 13.0343 28.444 13.014 28.038C12.7501 22.6781 15.5519 17.9069 19.856 15.3488C19.9982 15.2676 20.1606 15.3894 20.1403 15.5518C19.247 21.3584 22.333 25.0941 23.2263 26.028C23.3278 26.1295 23.2669 26.292 23.1451 26.3529C21.0742 27.0229 20.2418 28.8501 20.0185 29.4998C19.9779 29.6216 19.8357 29.6622 19.7342 29.581C19.5718 29.4795 19.3891 29.378 19.2267 29.2765C19.1454 29.2358 19.1048 29.1546 19.1251 29.0734C19.4094 27.7131 19.9982 26.1295 20.6072 25.5205C20.79 25.3377 20.79 25.2159 20.6681 25.2565C19.7545 25.5205 18.4958 27.3477 18.1506 28.6471C18.1303 28.7486 18.0288 28.8095 17.907 28.7892C17.7243 28.7486 17.5415 28.708 17.3385 28.6877C17.237 28.6674 17.1761 28.6065 17.1558 28.5049C17.0543 26.495 18.3739 24.1399 18.983 23.1247C19.1657 22.8202 18.983 22.8405 18.8409 22.9623C17.8664 23.7338 16.3843 25.5611 16.1203 28.5049C16.1203 28.6065 16.0391 28.6674 15.9376 28.6877C15.7752 28.708 15.6331 28.7283 15.491 28.7486C15.3894 28.7689 15.2879 28.6877 15.2676 28.5862C14.7804 24.7286 15.9782 22.4141 16.6685 21.2975C16.7497 21.1757 16.6279 21.1148 16.5061 21.2163C15.2067 22.272 13.6637 25.5814 14.2119 28.911C14.2322 28.9922 14.1713 29.0937 14.0901 29.114C13.8058 29.2358 13.5825 29.3374 13.4201 29.4389C13.3186 29.4795 13.1561 29.3983 13.1358 29.2561ZM23.1045 36.3621C23.2669 36.4636 23.206 36.7072 23.0233 36.7072H19.8763C19.8154 36.7072 19.7545 36.6666 19.7139 36.6057L17.3182 32.4437C17.2776 32.3828 17.2776 32.3219 17.3182 32.2609L18.4958 30.2307C18.5364 30.1495 18.6582 30.1089 18.7394 30.1495C19.0642 30.3322 19.4094 30.5555 19.7342 30.8398C19.7342 30.8601 19.7342 30.8804 19.7342 30.921C19.7342 33.2761 21.2163 35.3064 23.1045 36.3621ZM13.7043 31.7128C13.6231 31.4488 13.5419 31.1646 13.481 30.9007C13.4607 30.8195 13.481 30.7585 13.5419 30.7179C13.9276 30.4337 15.491 29.4186 17.3385 29.7231C17.4603 29.7434 17.5212 29.8855 17.4603 30.0073L16.4249 31.794C16.3843 31.8549 16.3234 31.8955 16.2625 31.8955H13.887C13.8058 31.8346 13.7246 31.794 13.7043 31.7128ZM18.8409 37.3163L18.2724 38.3111C18.2115 38.4127 18.0694 38.433 17.9882 38.3518C16.3843 36.9306 15.0849 35.1439 14.2322 33.134C14.1916 33.0121 14.2728 32.87 14.3946 32.87H16.2828C16.3437 32.87 16.4046 32.9106 16.4452 32.9715L18.8409 37.1336C18.8815 37.1945 18.8815 37.2757 18.8409 37.3163ZM26.8808 41.9656C23.9775 41.8235 21.3178 40.849 19.1048 39.2451C19.0236 39.1842 19.0033 39.0827 19.0439 39.0014L19.7139 37.8442C19.7545 37.7833 19.8154 37.7427 19.8763 37.7427H24.6678C24.7287 37.7427 24.7896 37.7833 24.8302 37.8442L27.0432 41.6814C27.1041 41.8235 27.0229 41.9859 26.8808 41.9656ZM33.6416 40.6663C32.8295 41.052 31.9564 41.3566 31.0631 41.5799C31.0428 41.5799 31.0225 41.5799 31.0225 41.5799H28.2614C28.2004 41.5799 28.1395 41.5393 28.0989 41.4784L25.6423 37.2351L25.6829 37.1539C25.7641 37.1539 25.8656 37.1742 25.9468 37.1742C28.7689 37.2148 31.124 35.4282 31.9767 33.0324C31.997 32.9512 32.0783 32.9106 32.1392 32.9106H33.0325C33.0934 32.9106 33.1543 32.9512 33.1949 33.0121L35.5906 37.1742C35.6312 37.2351 35.6312 37.296 35.5906 37.3569L33.7025 40.6054C33.7025 40.6054 33.6619 40.646 33.6416 40.6663ZM37.4585 38.0675C36.8291 38.6563 36.1388 39.2045 35.4079 39.6714L36.4636 37.8442C36.5042 37.7833 36.5652 37.7427 36.6261 37.7427H37.3367C37.4991 37.763 37.5803 37.966 37.4585 38.0675ZM38.7985 36.6463C38.7578 36.6869 38.7172 36.7072 38.6563 36.7072H36.6261C36.5652 36.7072 36.5042 36.6666 36.4636 36.6057L34.0679 32.4437C34.0273 32.3828 34.0273 32.3219 34.0679 32.2609L36.4636 28.0989C36.5042 28.038 36.5652 27.9974 36.6261 27.9974H41.4175C41.4784 27.9974 41.5393 28.038 41.5799 28.0989L41.9657 28.7486C41.986 28.7892 41.986 28.8298 41.986 28.8704C41.7017 31.8143 40.5648 34.4739 38.7985 36.6463Z" fill="white"/>
<path d="M6.94354 26.495C6.82173 26.495 6.74052 26.5762 6.74052 26.6981C6.74052 26.8199 6.82173 26.9011 6.94354 26.9011H7.30899V28.302C7.30899 28.4238 7.41051 28.505 7.51202 28.505C7.63383 28.505 7.71505 28.4238 7.71505 28.302V26.9011H8.08049C8.20231 26.9011 8.28352 26.8199 8.28352 26.6981C8.28352 26.5965 8.20231 26.495 8.08049 26.495H6.94354ZM5.92841 26.4747C5.52235 26.4747 5.23812 26.6778 5.23812 27.0432C5.23812 27.3274 5.42084 27.4899 5.62387 27.5711L5.98932 27.7335C6.15174 27.7944 6.21265 27.8553 6.21265 27.9568C6.21265 28.0786 6.11113 28.1396 5.92841 28.1396C5.78629 28.1396 5.70508 28.099 5.62387 28.0786C5.54266 28.038 5.50205 28.0177 5.44114 28.0177C5.31933 28.0177 5.23812 28.0989 5.23812 28.2208C5.23812 28.302 5.27872 28.3629 5.35993 28.4035C5.50205 28.4847 5.70508 28.5253 5.90811 28.5253C6.33446 28.5253 6.6187 28.2817 6.6187 27.9365C6.6187 27.5914 6.39537 27.4696 6.21265 27.3884L5.8675 27.2462C5.70508 27.1853 5.66447 27.1447 5.66447 27.0432C5.66447 26.9011 5.80659 26.8808 5.90811 26.8808C6.02992 26.8808 6.11113 26.9011 6.21265 26.9417C6.27355 26.962 6.31416 26.9823 6.39537 26.9823C6.49688 26.9823 6.57809 26.9011 6.57809 26.7996C6.57809 26.7184 6.53749 26.6575 6.45628 26.6169C6.31416 26.5153 6.15174 26.4747 5.92841 26.4747ZM4.16207 28.0786V27.6523H4.77116C4.89297 27.6523 4.97418 27.5711 4.97418 27.4493C4.97418 27.3274 4.89297 27.2462 4.77116 27.2462H4.16207V26.9011H4.81176C4.93358 26.9011 5.01479 26.8199 5.01479 26.6981C5.01479 26.5762 4.93358 26.495 4.81176 26.495H3.97935C3.83723 26.495 3.73572 26.5965 3.73572 26.7387V28.2411C3.73572 28.3832 3.83723 28.4847 3.97935 28.4847H4.83206C4.95388 28.4847 5.03509 28.4035 5.03509 28.2817C5.03509 28.1599 4.95388 28.0786 4.83206 28.0786H4.16207Z" fill="white"/>
<path d="M51.4877 26.8605C51.6298 26.8605 51.711 26.9417 51.711 27.0635C51.711 27.1853 51.6298 27.2665 51.4877 27.2665C51.3456 27.2665 51.2644 27.1853 51.2644 27.0635C51.2644 26.9214 51.3456 26.8605 51.4877 26.8605ZM51.4877 27.6523C51.6501 27.6523 51.7516 27.7335 51.7516 27.8959C51.7516 28.0583 51.6501 28.1396 51.4877 28.1396C51.3253 28.1396 51.2238 28.0583 51.2238 27.8959C51.2238 27.7335 51.3253 27.6523 51.4877 27.6523ZM51.4877 26.4747C51.1019 26.4747 50.8583 26.6981 50.8583 27.0635C50.8583 27.2056 50.9192 27.3477 51.041 27.4493C50.8989 27.5508 50.8177 27.7132 50.8177 27.8959C50.8177 28.2817 51.0816 28.5253 51.508 28.5253C51.914 28.5253 52.1983 28.2817 52.1983 27.8959C52.1983 27.7132 52.1171 27.5508 51.975 27.4493C52.0968 27.3477 52.1577 27.2056 52.1577 27.0635C52.1374 26.6981 51.8734 26.4747 51.4877 26.4747ZM50.1883 26.4747C50.1477 26.4747 50.1071 26.495 50.0868 26.5153L49.6401 26.7793C49.5589 26.8199 49.5386 26.8808 49.5386 26.9417C49.5386 27.0432 49.6198 27.1244 49.7417 27.1244C49.7823 27.1244 49.8229 27.1041 49.8635 27.0838L50.0259 27.0026V28.3223C50.0259 28.4441 50.1071 28.5253 50.2289 28.5253C50.3507 28.5253 50.432 28.4441 50.432 28.3223V26.6981C50.4116 26.5559 50.3101 26.4747 50.1883 26.4747ZM48.6047 26.8605C48.7874 26.8605 48.8686 26.9417 48.8686 27.1244V27.8756C48.8686 28.0583 48.7874 28.1599 48.6047 28.1599C48.422 28.1599 48.3408 28.0786 48.3408 27.8756V27.1244C48.3205 26.9417 48.422 26.8605 48.6047 26.8605ZM48.6047 26.4747C48.1784 26.4747 47.9144 26.7387 47.9144 27.1447V27.835C47.9144 28.2614 48.1987 28.505 48.6047 28.505C49.0311 28.505 49.2747 28.2411 49.2747 27.835V27.1447C49.2747 26.7184 49.0108 26.4747 48.6047 26.4747ZM46.8993 26.4747C46.6556 26.4747 46.5135 26.5356 46.412 26.5965C46.3511 26.6372 46.3105 26.6981 46.3105 26.759C46.3105 26.8605 46.3917 26.9417 46.4932 26.9417C46.5135 26.9417 46.5338 26.9417 46.5541 26.9214C46.676 26.8808 46.7572 26.8402 46.8993 26.8402C47.0414 26.8402 47.1429 26.9214 47.1429 27.0635C47.1429 27.165 47.082 27.2462 47.0008 27.3274L46.3308 28.0989C46.2902 28.1396 46.2699 28.1802 46.2699 28.2411C46.2699 28.3629 46.3714 28.4644 46.4932 28.4644H47.3662C47.4881 28.4644 47.5693 28.3832 47.5693 28.2614C47.5693 28.1599 47.4881 28.0583 47.3662 28.0583H46.8993L47.3662 27.5305C47.5084 27.3681 47.5896 27.2259 47.5896 27.0229C47.5693 26.6981 47.3053 26.4747 46.8993 26.4747Z" fill="white"/>
<path d="M42.5342 44.199L42.0469 43.6914L42.3717 43.3869C42.5545 43.2244 42.7575 43.1838 42.8996 43.3463C43.062 43.5087 43.0214 43.7117 42.8387 43.8741L42.5342 44.199ZM41.2145 42.8387L41.519 42.5545C41.6611 42.4123 41.8439 42.392 41.9657 42.5341C42.1078 42.6763 42.0672 42.8387 41.9251 42.9808L41.6205 43.265L41.2145 42.8387ZM40.5851 42.5748C40.4227 42.7169 40.4227 42.9605 40.5648 43.1229L42.2093 44.8487C42.3514 45.0111 42.5951 44.9908 42.7575 44.8487L43.2854 44.3411C43.7929 43.8538 43.8335 43.3463 43.4275 42.9199C43.2448 42.7169 42.9605 42.6154 42.6966 42.656C42.6966 42.4326 42.656 42.2296 42.4733 42.0469C42.0672 41.6205 41.5799 41.6611 41.113 42.1078L40.5851 42.5748ZM39.5497 43.3463C39.4076 43.4478 39.3669 43.6508 39.4685 43.8132L40.4633 45.2141C40.6663 45.5186 40.646 45.7826 40.3415 45.9856C40.0572 46.1886 39.7933 46.148 39.57 45.8435L38.5751 44.4426C38.4533 44.2802 38.2503 44.2599 38.1082 44.3614C37.9661 44.4629 37.9052 44.6659 38.027 44.8284L39.0015 46.2089C39.4482 46.8586 40.0166 46.9601 40.6866 46.4932C41.316 46.0465 41.4378 45.4577 40.9709 44.808L39.9963 43.4275C39.9151 43.265 39.6918 43.2447 39.5497 43.3463ZM36.1591 45.4374C35.9967 45.5186 35.9155 45.7217 36.017 45.8841L37.1336 48.0768C37.2352 48.2595 37.4585 48.3407 37.6412 48.2392L38.8391 47.6301C39.0015 47.5489 39.0624 47.3662 38.9812 47.2038C38.9 47.0413 38.7173 46.9804 38.5548 47.0616L37.6209 47.5489L36.6261 45.5795C36.5246 45.3968 36.3215 45.3562 36.1591 45.4374ZM34.4334 46.1683C33.7634 46.4323 33.4792 47.0007 33.7431 47.7113L34.0679 48.5031C34.3319 49.1934 34.941 49.4168 35.6109 49.1528C35.8546 49.0513 36.1185 48.9092 36.2809 48.6656C36.3418 48.564 36.3621 48.4625 36.3215 48.361C36.2606 48.1986 36.0576 48.1377 35.9155 48.1986C35.8546 48.2189 35.7937 48.2595 35.7125 48.361C35.6312 48.4625 35.5094 48.5437 35.3673 48.5843C35.0628 48.7062 34.7988 48.6046 34.677 48.3001L34.3319 47.4068C34.2101 47.1023 34.3319 46.8586 34.6364 46.7368C34.7988 46.6759 34.9207 46.6556 35.0831 46.6759C35.144 46.6759 35.2049 46.6759 35.2861 46.6556C35.4485 46.5947 35.5297 46.412 35.4688 46.2495C35.4282 46.1277 35.3267 46.0668 35.144 46.0465C34.941 46.0262 34.7176 46.0668 34.4334 46.1683ZM30.4135 47.2038C30.2307 47.2444 30.1089 47.4068 30.1495 47.5895L30.5759 50.0258C30.6165 50.2289 30.8195 50.371 31.0225 50.3304L32.3422 50.0867C32.5249 50.0461 32.6265 49.904 32.6061 49.7213C32.5655 49.5386 32.4234 49.4371 32.2407 49.4574L31.2053 49.6401L30.8195 47.4677C30.7586 47.285 30.5962 47.1632 30.4135 47.2038ZM28.0177 47.4068C27.835 47.4068 27.6929 47.5489 27.6929 47.7519L27.7538 50.2086C27.7538 50.4116 27.9365 50.574 28.1599 50.574L29.4998 50.5334C29.6826 50.5334 29.8247 50.3913 29.8044 50.2086C29.8044 50.0258 29.6623 49.904 29.4795 49.904L28.4238 49.9243L28.3629 47.7316C28.3426 47.5286 28.2005 47.3865 28.0177 47.4068ZM26.0281 49.3355L25.4393 49.2949L25.8047 48.3813L26.0281 49.3355ZM26.1905 47.5895C26.1499 47.4474 26.0078 47.3459 25.8657 47.3256C25.7235 47.3053 25.5814 47.3865 25.5002 47.5286L24.4039 50.0055C24.3836 50.0461 24.3836 50.107 24.3633 50.1273C24.343 50.3101 24.4851 50.4522 24.6678 50.4725C24.8099 50.4928 24.9317 50.4116 24.9926 50.2898L25.1551 49.8634L26.1499 49.9446L26.2514 50.3913C26.292 50.5334 26.4138 50.6146 26.5559 50.6146C26.7387 50.6349 26.9011 50.5131 26.9011 50.3304C26.9011 50.2898 26.9011 50.2492 26.8808 50.2086L26.1905 47.5895ZM22.2721 49.3558L22.4345 48.6859L22.8609 48.7874C23.1045 48.8483 23.2263 48.9904 23.1857 49.2137C23.1451 49.4371 22.9421 49.5183 22.6984 49.4574L22.2721 49.3558ZM22.6984 47.5083L23.1045 47.6098C23.3075 47.6504 23.4293 47.7925 23.3684 47.9753C23.3278 48.1783 23.1654 48.2392 22.9624 48.1783L22.5563 48.0768L22.6984 47.5083ZM22.5563 46.8383C22.3533 46.7977 22.1503 46.8992 22.0894 47.1226L21.5615 49.4371C21.5209 49.6401 21.6427 49.8431 21.8457 49.8837L22.5563 50.0461C23.2466 50.2086 23.6933 49.9446 23.8151 49.3762C23.876 49.1122 23.8151 48.828 23.6324 48.625C23.8151 48.5031 23.9572 48.361 24.0181 48.1174C24.1399 47.5489 23.8557 47.1632 23.2263 47.021L22.5563 46.8383ZM19.8561 45.945C19.6733 45.8841 19.5109 45.9653 19.45 46.1277C19.3891 46.2901 19.45 46.4729 19.6327 46.5541L20.1606 46.7571L19.3485 48.8077C19.2673 48.9904 19.3688 49.1731 19.5312 49.234C19.6936 49.2949 19.8967 49.234 19.9576 49.0513L20.7697 47.0007L21.2975 47.2038C21.46 47.2647 21.6427 47.1835 21.7036 47.021C21.7645 46.8586 21.7036 46.6759 21.5209 46.615L19.8561 45.945ZM17.9679 45.6811C18.2521 45.8232 18.3537 46.0871 18.1912 46.3917L17.7649 47.2444C17.6228 47.5286 17.3588 47.6098 17.0543 47.4677C16.77 47.3256 16.6685 47.0616 16.831 46.7571L17.2573 45.9044C17.4197 45.6202 17.6837 45.5389 17.9679 45.6811ZM18.2521 45.1329C17.6228 44.808 16.9934 44.9705 16.6482 45.6405L16.2625 46.412C15.9173 47.0819 16.161 47.691 16.7903 48.0159C17.4197 48.3407 18.0491 48.1783 18.3943 47.5083L18.78 46.7368C19.1252 46.0465 18.8815 45.4577 18.2521 45.1329ZM15.4707 44.1381C15.7346 44.3208 15.7955 44.605 15.5925 44.869L15.0443 45.6405C14.8616 45.9044 14.5774 45.945 14.3134 45.7623C14.0495 45.5795 13.9886 45.2953 14.1916 45.0314L14.7398 44.2599C14.9428 43.9959 15.2067 43.9553 15.4707 44.1381ZM15.8361 43.6305C15.2473 43.2244 14.618 43.2853 14.1713 43.8944L13.6637 44.605C13.2171 45.2141 13.3795 45.8435 13.948 46.2495C14.5368 46.6556 15.1661 46.5947 15.6128 45.9856L16.1204 45.275C16.567 44.6659 16.4046 44.0568 15.8361 43.6305ZM13.4201 41.6408C13.2577 41.4987 13.014 41.4987 12.8719 41.6408L11.1665 43.4275C11.0244 43.5696 11.0447 43.7726 11.1665 43.8944C11.3086 44.0365 11.4913 44.0365 11.6335 43.8741L12.3238 43.1432L13.014 43.7929C13.1562 43.935 13.3389 43.9147 13.4607 43.7726C13.5825 43.6508 13.5825 43.4478 13.4404 43.3259L12.7501 42.6763L13.1359 42.2702L13.8668 42.9605C14.0089 43.1026 14.1916 43.0823 14.3134 42.9402C14.4352 42.8184 14.4352 42.6154 14.2931 42.4935L13.4201 41.6408Z" fill="white"/>
</svg>
