<?xml version="1.0" encoding="UTF-8" standalone="no"?><!DOCTYPE svg PUBLIC "-//W3C//DTD SVG 1.1//EN" "http://www.w3.org/Graphics/SVG/1.1/DTD/svg11.dtd"><svg width="100%" height="100%" viewBox="0 0 1613 273" version="1.1" xmlns="http://www.w3.org/2000/svg" xmlns:xlink="http://www.w3.org/1999/xlink" xml:space="preserve" xmlns:serif="http://www.serif.com/" style="fill-rule:evenodd;clip-rule:evenodd;stroke-linejoin:round;stroke-miterlimit:2;"><rect x="874.68" y="61.942" width="46.03" height="148.74" style="fill:#00aabe;"/><path d="M1106.73,61.942l-155.85,-0l0,38.68l54.92,-0l0,110.06l46.02,-0l0,-110.06l54.91,-0l0,-38.68Z" style="fill:#00aabe;fill-rule:nonzero;"/><rect x="1359.45" y="61.942" width="46.04" height="148.74" style="fill:#00aabe;"/><path d="M1570.79,61.912l0,85l-91.15,-77c-18.43,-16.92 -43.58,-6.4 -43.58,19.78l0,121l41.8,-0l0,-87.39l91.16,79.41c17.93,17.2 43.8,6.3 43.8,-20l0,-120.8l-42.03,-0Z" style="fill:#00aabe;fill-rule:nonzero;"/><path d="M520.44,83.622c-8.392,-7.009 -18.007,-12.406 -28.36,-15.92c-11.517,-3.936 -23.619,-5.89 -35.79,-5.78l-102.06,-0l0,148.75l102.06,-0c12.128,0.108 24.2,-1.656 35.79,-5.23c10.302,-3.139 19.923,-8.187 28.36,-14.88c7.793,-6.302 14.158,-14.191 18.67,-23.14c4.572,-9.215 6.893,-19.385 6.77,-29.67c0.094,-10.431 -2.223,-20.743 -6.77,-30.13c-4.483,-9.214 -10.843,-17.389 -18.67,-24m-23.69,66.68c-2.247,4.414 -5.39,8.311 -9.23,11.44c-4.113,3.381 -8.83,5.953 -13.9,7.58c-5.594,1.819 -11.447,2.717 -17.33,2.66l-56.25,-0l-0,-71.81l56.25,-0c5.951,-0.064 11.875,0.8 17.56,2.56c5.031,1.543 9.741,3.986 13.9,7.21c7.932,6.178 12.505,15.747 12.33,25.8c0.072,5.049 -1.07,10.043 -3.33,14.56" style="fill:#00aabe;fill-rule:nonzero;"/><path d="M1179.61,78.562l-95.39,132.13l54.47,-0l69.82,-98.72l24.44,35.22l-29.25,-0l-27,38.23l82.74,-0l17.53,25.27l54.66,-0l-92.92,-132.13c-15.76,-22.89 -43.1,-22.16 -59.14,-0" style="fill:#00aabe;fill-rule:nonzero;"/><path d="M706.44,67.142c-10.306,3.136 -19.926,8.195 -28.35,14.91c-7.795,6.287 -14.155,14.17 -18.65,23.12c-4.584,9.211 -6.912,19.382 -6.79,29.67c-0.09,10.438 2.234,20.757 6.79,30.15c4.488,9.21 10.847,17.384 18.67,24c8.385,6.996 17.99,12.387 28.33,15.9c11.517,3.938 23.619,5.889 35.79,5.77l102.07,-0l-0,-79.7l-45.79,-0l-0,41.47l-56.26,-0c-5.951,0.06 -11.876,-0.807 -17.56,-2.57c-5.032,-1.541 -9.742,-3.984 -13.9,-7.21c-7.936,-6.173 -12.517,-15.738 -12.35,-25.79c-0.064,-5.051 1.085,-10.045 3.35,-14.56c2.251,-4.417 5.398,-8.317 9.24,-11.45c4.118,-3.356 8.825,-5.917 13.88,-7.55c5.599,-1.813 11.455,-2.712 17.34,-2.66l102.05,-0l-0,-38.71l-102.05,-0c-12.133,-0.109 -24.211,1.649 -35.81,5.21" style="fill:#00aabe;fill-rule:nonzero;"/><rect x="576.25" y="61.952" width="46.02" height="148.73" style="fill:#00aabe;"/><path d="M63.44,78.972c18,-7.25 35.5,-2.53 54.1,-1.78c17.56,0.74 35.8,-2.73 52.82,-6.68c4,-0.93 16.53,-2.09 18,-7.25c1.11,-3.92 -4.28,-11.39 -6,-14.71c-7.34,-14.23 -15.34,-25.1 -32.88,-23.14c-16.75,1.86 -31.74,6.71 -48.74,4.36c-18.24,-2.5 -36.95,-6.61 -49.72,9.12c-12.4,15.3 -19.75,52.11 12.41,40.08" style="fill:#00aabe;fill-rule:nonzero;"/><path d="M76.75,19.812c19.36,0.15 37.23,-0 56.33,-3.44c9.593,-1.707 19.316,-2.584 29.06,-2.62c1.47,-0 24.44,-0.43 23.53,-2.89c-1.78,-4.7 -23.1,-7.73 -27,-8.52c-15.613,-3.233 -31.735,-3.117 -47.3,0.34c-11,2.47 -23.93,5 -34.08,10.15c-3.63,1.85 -10,7.77 -0.51,7" style="fill:#00aabe;fill-rule:nonzero;"/><path d="M184.94,18.302c-2.38,2 -7.23,-0.51 -6.84,2.76c0.22,1.87 1.46,2.86 2.66,4.23c6.85,7.8 14.14,15.66 19.84,24.28c3.24,4.89 4.65,9.27 10.84,11.12c4.68,1.41 27.06,2.34 30.22,-3.33c4.15,-7.49 -17.31,-24 -21.21,-27.36c-5.34,-4.67 -11.29,-10.1 -18.16,-12.34c-3.73,-1.23 -9.7,-2.11 -13.62,-1.44c-4.87,0.84 -2.53,1 -3.73,2.08" style="fill:#00aabe;fill-rule:nonzero;"/><path d="M235.92,76.582c-6.72,0.39 -12.77,-0 -19.73,1.25c-16.52,3 -32.81,7.16 -49.22,10.66c-14.24,3 -29.92,8.08 -44.54,7.38c-12.27,-0.6 -33.91,-6 -48.52,-1.88c-20.7,5.87 -2.26,23.81 8.12,30.2c10.53,6.48 24.28,6.47 36.23,5.36c15.76,-1.47 26.55,-4.4 41.57,3.23c13,6.63 24.21,15.7 39.46,16.29c21.37,0.84 47.76,-6.39 55.45,-27.9c1.9,-5.28 2.62,-10.73 4,-16.09c1,-3.88 4.49,-6.7 5.3,-10.07c0.5,-2.1 -10.11,-29 -14.37,-27.55c0.23,-0.08 -0,5.17 -1.15,6.39c-1.6,1.71 -10.47,2.61 -12.64,2.73" style="fill:#00aabe;fill-rule:nonzero;"/><path d="M192.85,247.022c17,0.21 19.66,-26.91 21.75,-39.65c1.63,-10.05 9,-36.84 -5.83,-38.19c-9.5,-0.88 -15.89,2.53 -25.24,-1.52c-5.9,-2.56 -11.58,-6.16 -17.3,-9.12c-15.08,-7.79 -78.08,-23.92 -62.58,10c11,24.2 53.19,22.11 65,48.07c5.52,12.19 6.78,30.15 24.2,30.39" style="fill:#00aabe;fill-rule:nonzero;"/><path d="M153.9,223.632c-6.77,-11.3 -19.33,-21.59 -33.37,-20.91c-21.75,1 -16.82,28.75 -8.26,40.19c11,14.72 42.66,21.38 58.91,13.61c8.91,-4.27 0.93,-4.54 -4.19,-9.87c-6.21,-6.46 -8.58,-15.49 -13.09,-23" style="fill:#00aabe;fill-rule:nonzero;"/><path d="M81.09,255.722c-1.8,-5.26 7.78,-4.35 11.43,-4.78c6.48,-0.79 9.09,0.4 6.86,-6.69c-1.42,-4.46 -7.19,-9.85 -11.78,-10.73c-5.77,-1.12 -11.92,1.63 -18.09,0.33c-7.72,-1.67 -13.55,-6.33 -20.09,-10.43c-5.35,-3.37 -17.54,-8.54 -14.78,2.51c1.1,4.43 7.22,9.55 10.3,12.46c18.63,17.61 44.34,27 68.91,32.5c-6.88,-4.72 -12.93,-9.62 -21.25,-11.38c-3.12,-0.66 -9.94,0.74 -11.51,-3.79" style="fill:#00aabe;fill-rule:nonzero;"/><path d="M31.74,60.822c2.83,-6.1 17.32,-22.19 15.51,-27.39c-15.69,13.89 -29.7,31.75 -37.2,51.39c12.91,-5 16.09,-12 21.69,-24" style="fill:#00aabe;fill-rule:nonzero;"/><path d="M268.26,113.532c-3.85,-0.5 -8.77,23.16 -9.36,25.23c-4.13,10.68 -11.25,15.15 -19.15,22.1c-6.64,5.85 -5.56,15.12 -6.72,23.34c-2.542,18.662 -8.169,36.773 -16.65,53.59c1.59,6.4 18.78,-9 20.47,-11.1c6.29,-7.76 12.83,-15.62 17.83,-24.29c7.922,-13.548 13.063,-28.542 15.12,-44.1c0.41,-3.48 3.7,-44.06 -1.54,-44.73" style="fill:#00aabe;fill-rule:nonzero;"/><path d="M213.74,244.932c-9.56,5.62 -13.47,7.82 -24.52,11.44c-15.4,5.05 -32,10.32 -48.24,7.11c-4.47,-0.88 -34.38,-10.78 -34.49,-3.28c-0.11,7.07 23.78,10.48 28.65,11.41c14.9,2.82 29.72,-0.8 43.77,-5.88c13.53,-4.9 25.46,-10.7 37,-19.27c2.88,-2.17 5.45,-4.21 5.11,-4.38c-1,-0.51 -4.08,1 -7.23,2.85" style="fill:#00aabe;fill-rule:nonzero;"/><path d="M76.44,218.852c23,-10.94 18.44,-50.16 7.22,-67.09c-12.64,-19.06 -40.58,-37.27 -58,-13.1c-3.31,4.61 -10.55,27 -17,26.07c-4.59,-0.68 -7.61,-15 -8.66,-18.7c1.642,17.895 6.729,35.305 14.98,51.27c9.8,-2.44 19.46,8.19 26.62,12.94c9.1,6 23.92,13.8 34.85,8.61" style="fill:#00aabe;fill-rule:nonzero;"/><path d="M13.44,134.712c2.3,-5.13 3.51,-11.38 6.56,-16.18c3.21,-5 7.26,-6.28 12.34,-9.12c9.09,-5.13 17.75,-19.29 0.4,-20.37c-5,-0.32 -26.27,12.3 -26.6,6.35c-4.74,13 -7,27 -3.56,40.61c3.11,12.44 7.24,6.72 10.86,-1.29" style="fill:#00aabe;fill-rule:nonzero;"/></svg>