<?xml version="1.0" encoding="utf-8"?>
<!-- Generator: Adobe Illustrator 22.0.0, SVG Export Plug-In . SVG Version: 6.00 Build 0)  -->
<svg version="1.1" id="Layer_1" xmlns="http://www.w3.org/2000/svg" xmlns:xlink="http://www.w3.org/1999/xlink" x="0px" y="0px"
	 viewBox="0 0 146 80" style="enable-background:new 0 0 146 80;" xml:space="preserve">
<style type="text/css">
	.st0{fill:#EF4423;}
</style>
<g>
	<g>
		<polygon points="108.7,51.2 106.1,70.1 98.2,51.2 93.1,51.2 89.2,79.3 94.3,79.3 97,60.4 104.8,79.3 109.9,79.3 113.9,51.2 		"/>
		<path d="M39.7,79.3h5.1l-3.9-28.1h-5.1L24.1,79.3h5.1l2.7-6.4h7L39.7,79.3z M34,67.8l3.1-7.4l1,7.4H34z"/>
		<polygon points="79.3,79.3 84.4,79.3 88.3,51.2 83.2,51.2 		"/>
		<path d="M5.7,71.7l1.9-13.5c0.2-1.1,1.1-1.9,2.2-1.9h13.7l0.7-5.1H6.8c-1.9,0-3.6,1.4-3.8,3.3L0.1,74.9c-0.3,2.3,1.5,4.4,3.8,4.4
			h12.9c1.9,0,3.6-1.4,3.8-3.3l1.9-13.2H10.3l-0.7,5.1h7.2L16,73c-0.1,0.7-0.7,1.2-1.4,1.2H7.8C6.5,74.2,5.5,73,5.7,71.7z"/>
		<path d="M121.1,71.7l1.9-13.5c0.2-1.1,1.1-1.9,2.2-1.9h13.7l0.7-5.1h-17.4c-1.9,0-3.6,1.4-3.8,3.3l-2.9,20.3
			c-0.3,2.3,1.5,4.4,3.8,4.4h12.9c1.9,0,3.6-1.4,3.8-3.3l1.9-13.2h-12.3l-0.7,5.1h7.2l-0.7,5.2c-0.1,0.7-0.7,1.2-1.4,1.2h-6.8
			C122,74.2,121,73,121.1,71.7z"/>
		<polygon points="73.3,51.2 62.6,72.4 57.7,51.2 52.6,51.2 48.7,79.3 53.8,79.3 55.8,65.1 59,79.3 64.1,79.3 71.4,65.1 69.4,79.3 
			74.5,79.3 78.4,51.2 		"/>
	</g>
	<path class="st0" d="M114.5,6.1l-4.3,30.6c-0.5,3.6,2.3,6.8,5.9,6.8h19.4c3,0,5.5-2.2,5.9-5.2l4.3-30.6c0.5-3.6-2.3-6.8-5.9-6.8
		h-19.4C117.4,0.9,114.9,3.1,114.5,6.1z M131.6,35.7h-10.3c-1.7,0-3-1.5-2.8-3.2l3-21.4c0.2-1.4,1.4-2.4,2.8-2.4h10.3
		c1.7,0,3,1.5,2.8,3.2l-3,21.4C134.2,34.7,133,35.7,131.6,35.7z"/>
	<path class="st0" d="M41.2,6.1l-4.3,30.6c-0.5,3.6,2.3,6.8,5.9,6.8h19.4c3,0,5.5-2.2,5.9-5.2l4.3-30.6c0.5-3.6-2.3-6.8-5.9-6.8
		H47.1C44.1,0.9,41.6,3.1,41.2,6.1z M58.3,35.7H48c-1.7,0-3-1.5-2.8-3.2l3-21.4c0.2-1.4,1.4-2.4,2.8-2.4h10.3c1.7,0,3,1.5,2.8,3.2
		l-3,21.4C60.9,34.7,59.7,35.7,58.3,35.7z"/>
	<polygon class="st0" points="110.1,0.9 78.6,0.9 77.5,8.7 89.2,8.7 84.3,43.5 92.1,43.5 97,8.7 109,8.7 	"/>
	<polygon class="st0" points="36.7,0.9 5.3,0.9 4.2,8.7 15.9,8.7 11,43.5 18.8,43.5 23.7,8.7 35.7,8.7 	"/>
</g>
</svg>
