<svg xmlns="http://www.w3.org/2000/svg" width="32" height="32" viewBox="0 0 32 32"><g class="a" transform="translate(0)" fill="#2b2b2b"><path class="c" stroke="stroke" d="M 16 30 C 12.26049041748047 30 8.744790077209473 28.54376029968262 6.100540161132812 25.89953994750977 C 3.456269979476929 23.25528907775879 2 19.73957061767578 2 16 C 2 12.26043033599854 3.456269979476929 8.744709968566895 6.100540161132812 6.100460052490234 C 8.744790077209473 3.456239938735962 12.26049041748047 2 16 2 C 20.30355072021484 2 24.25774002075195 3.956929922103882 27.13418006896973 7.510300159454346 L 27.13591003417969 7.512440204620361 L 27.13764953613281 7.514579772949219 C 28.95671081542969 9.749110221862793 30 12.8419303894043 30 16 C 30 19.73959922790527 28.54376029968262 23.25532913208008 25.89954948425293 25.89954948425293 C 23.25532913208008 28.54376029968262 19.73959922790527 30 16 30 Z"/><path class="d" stroke="stroke" fill="#161415" d="M 16 4 C 12.79470062255859 4 9.78125 5.248210906982422 7.514749526977539 7.514680862426758 C 5.24822998046875 9.781179428100586 4 12.7946605682373 4 16 C 4 19.20534133911133 5.24822998046875 22.21881866455078 7.514749526977539 24.48532104492188 C 9.78125 26.75178909301758 12.79470062255859 28 16 28 C 19.20537948608398 28 22.2188606262207 26.75180053710938 24.48533058166504 24.48533058166504 C 26.75180053710938 22.2188606262207 28 19.20537948608398 28 16 C 28 13.33366966247559 27.09779930114746 10.63356971740723 25.58662033081055 8.777229309082031 L 25.5831298828125 8.77294921875 L 25.57966041564941 8.768669128417969 C 24.33734893798828 7.233980178833008 22.87892913818359 6.04258918762207 21.24489974975586 5.227590560913086 C 19.61175918579102 4.413019180297852 17.84712028503418 4 16 4 M 16 0 C 21.01919937133789 0 25.49855041503906 2.311019897460938 28.68869018554688 6.251930236816406 C 30.66312980651855 8.677330017089844 32 12.18251991271973 32 16 C 32 24.83668899536133 24.83668899536133 32 16 32 C 7.16356086730957 32 0 24.83668899536133 0 16 C 0 7.163309097290039 7.16356086730957 0 16 0 Z"/></g><path class="b" fill="#ffb700" d="M174.059,175.434l-1.64,5.657a.174.174,0,0,1-.167.124H169.9a.174.174,0,0,1-.167-.124l-1.64-5.657a.172.172,0,0,1,.167-.219h1.378a.174.174,0,0,1,.167.124l1.1,3.8a.175.175,0,0,0,.334,0l1.1-3.8a.173.173,0,0,1,.167-.124h1.378A.172.172,0,0,1,174.059,175.434Zm4.13-.219H175.1a.173.173,0,0,0-.174.171v1.372a.173.173,0,0,0,.174.171h.674V179.5H175.1a.173.173,0,0,0-.174.171v1.372a.173.173,0,0,0,.174.172h3.088a.173.173,0,0,0,.174-.172v-1.372a.173.173,0,0,0-.174-.171h-.674v-2.572h.674a.173.173,0,0,0,.174-.171v-1.372A.173.173,0,0,0,178.189,175.215Zm6.9,2.514a2.533,2.533,0,0,1-2.552,2.514h-1.2v.8a.172.172,0,0,1-.174.171h-1.392a.172.172,0,0,1-.174-.171v-5.658a.173.173,0,0,1,.174-.171h2.763a2.533,2.533,0,0,1,2.551,2.514Zm-1.687,0a.924.924,0,0,0-.931-.917H181.4v1.834h1.07A.924.924,0,0,0,183.4,177.729Zm0,0" transform="translate(-160.09 -162.215)"/></svg>